<svg width="20" height="20" viewBox="0 0 20 20" fill="none" xmlns="http://www.w3.org/2000/svg">
<mask id="mask0_2368_32680" style="mask-type:alpha" maskUnits="userSpaceOnUse" x="0" y="0" width="20" height="20">
<rect width="20" height="20" fill="#D9D9D9"/>
</mask>
<g mask="url(#mask0_2368_32680)">
<path d="M13.1022 16.1182C11.4127 16.1182 9.97093 15.5211 8.77676 14.327C7.58259 13.133 6.98551 11.6911 6.98551 10.0016C6.98551 8.31545 7.58259 6.87413 8.77676 5.6776C9.97093 4.48108 11.4127 3.88281 13.1022 3.88281C14.7884 3.88281 16.2298 4.48108 17.4263 5.6776C18.6229 6.87413 19.2211 8.31545 19.2211 10.0016C19.2211 11.6911 18.6229 13.133 17.4263 14.327C16.2298 15.5211 14.7884 16.1182 13.1022 16.1182ZM13.0916 14.1943C14.2631 14.1943 15.2569 13.7902 16.073 12.982C16.8891 12.1738 17.2972 11.1839 17.2972 10.0124C17.2972 8.84087 16.8896 7.84705 16.0745 7.03094C15.2592 6.21483 14.2693 5.80677 13.1047 5.80677C11.9263 5.80677 10.9325 6.21434 10.1232 7.02948C9.31405 7.84462 8.90947 8.83448 8.90947 9.99906C8.90947 11.1775 9.31364 12.1714 10.122 12.9805C10.9302 13.7897 11.92 14.1943 13.0916 14.1943ZM14.588 12.8511L15.9449 11.4943L14.0636 9.60865V7.02406H12.1413V10.4005L14.588 12.8511ZM2.02905 7.7124V5.78865H5.73551V7.7124H2.02905ZM1.02905 10.9624V9.03865H5.73551V10.9624H1.02905ZM2.02905 14.2124V12.2886H5.73551V14.2124H2.02905Z" fill="#1F1801"/>
</g>
</svg>
