<svg width="20" height="20" viewBox="0 0 20 20" fill="none" xmlns="http://www.w3.org/2000/svg">
<mask id="mask0_2368_32677" style="mask-type:alpha" maskUnits="userSpaceOnUse" x="0" y="0" width="20" height="20">
<rect width="20" height="20" fill="#D9D9D9"/>
</mask>
<g mask="url(#mask0_2368_32677)">
<path d="M5.20557 17.4004V15.4529C5.65848 15.1957 6.01973 14.9407 6.28932 14.6879C6.5589 14.4353 6.76334 14.174 6.90265 13.904C7.04182 13.6341 7.13494 13.3669 7.18202 13.1023C7.22911 12.8379 7.25265 12.5761 7.25265 12.3171C7.25265 12.2374 7.24966 12.1463 7.24369 12.044C7.23758 11.9416 7.22064 11.8506 7.19286 11.7709H5.20557V9.72919H6.21098C5.80584 9.12169 5.53696 8.57384 5.40432 8.08565C5.27182 7.59746 5.20557 7.116 5.20557 6.64128C5.20557 5.35447 5.64078 4.27586 6.51119 3.40544C7.38175 2.53489 8.44654 2.09961 9.70557 2.09961C10.7557 2.09961 11.6733 2.38996 12.4583 2.97065C13.2433 3.55121 13.8151 4.34662 14.1739 5.3569L12.2924 6.17294C12.092 5.52864 11.7636 5.02898 11.307 4.67398C10.8505 4.31884 10.3167 4.14128 9.70557 4.14128C9.01237 4.14128 8.42932 4.37572 7.9564 4.84461C7.48362 5.3135 7.24723 5.89155 7.24723 6.57878C7.24723 7.09697 7.35862 7.59412 7.5814 8.07023C7.80432 8.54634 8.13196 9.09933 8.56432 9.72919H12.2472V11.7709H9.23182C9.25182 11.8922 9.26723 12.0007 9.27807 12.0961C9.2889 12.1915 9.29432 12.2999 9.29432 12.4213C9.29432 12.9539 9.21522 13.4714 9.05702 13.9738C8.89883 14.4761 8.63314 14.9378 8.25994 15.3588H11.9764C12.2868 15.3588 12.5533 15.2486 12.7758 15.0282C12.9983 14.8077 13.1572 14.4566 13.2527 13.9746L15.211 14.6848C15.0268 15.4909 14.6345 16.1451 14.0339 16.6473C13.4333 17.1494 12.7475 17.4004 11.9764 17.4004H5.20557Z" fill="#1F1801"/>
</g>
</svg>
