<svg width="20" height="20" viewBox="0 0 20 20" fill="none" xmlns="http://www.w3.org/2000/svg">
<mask id="mask0_2368_32683" style="mask-type:alpha" maskUnits="userSpaceOnUse" x="0" y="0" width="20" height="20">
<rect width="20" height="20" fill="#D9D9D9"/>
</mask>
<g mask="url(#mask0_2368_32683)">
<path d="M4.64128 17.4004C4.07989 17.4004 3.59926 17.2005 3.1994 16.8007C2.79954 16.4008 2.59961 15.9202 2.59961 15.3588V4.64128C2.59961 4.07989 2.79954 3.59926 3.1994 3.1994C3.59926 2.79954 4.07989 2.59961 4.64128 2.59961H7.81523C7.98135 2.15336 8.26107 1.79183 8.6544 1.51502C9.04787 1.23808 9.49642 1.09961 10 1.09961C10.5036 1.09961 10.9522 1.23808 11.3457 1.51502C11.739 1.79183 12.0187 2.15336 12.1848 2.59961H15.3588C15.9202 2.59961 16.4008 2.79954 16.8007 3.1994C17.2005 3.59926 17.4004 4.07989 17.4004 4.64128V15.3588C17.4004 15.9202 17.2005 16.4008 16.8007 16.8007C16.4008 17.2005 15.9202 17.4004 15.3588 17.4004H4.64128ZM4.64128 15.3588H15.3588V4.64128H4.64128V15.3588ZM6.14128 13.8588H11.9646V12.3588H6.14128V13.8588ZM6.14128 10.75H13.8588V9.25003H6.14128V10.75ZM6.14128 7.64128H13.8588V6.14128H6.14128V7.64128ZM10 4.09419C10.1717 4.09419 10.3136 4.03808 10.4259 3.92586C10.5381 3.81364 10.5942 3.67169 10.5942 3.50003C10.5942 3.32836 10.5381 3.18641 10.4259 3.07419C10.3136 2.96197 10.1717 2.90586 10 2.90586C9.82836 2.90586 9.68642 2.96197 9.57419 3.07419C9.46197 3.18641 9.40586 3.32836 9.40586 3.50003C9.40586 3.67169 9.46197 3.81364 9.57419 3.92586C9.68642 4.03808 9.82836 4.09419 10 4.09419Z" fill="#1F1801"/>
</g>
</svg>
