<svg preserveAspectRatio="xMidYMid meet" data-bbox="26.6 19.846 146.968 160.152" viewBox="26.6 19.846 146.968 160.152" height="200" width="200" xmlns="http://www.w3.org/2000/svg" data-type="color" role="presentation" aria-hidden="true" aria-label="">
    <g>
        <path d="M172.4 143.9c-.8-1.9-1.6-3.8-2.6-5.6-1.9-3.6-4-7.6-6.9-10.6-2.9-3-7.1-3.6-11-4.4-4.6-.9-9.2-1.7-13.9-2.3-.3-.3-.5-.6-.8-.9 3.8-6 3.6-14.6-.4-20.2.3-.1.6-.2.8-.4 1.5-1 3.5-2.9 3.4-4.9-.1-1.2-.8-2.3-1.6-3.2.2 0 .3 0 .5-.1 1.4-.3 3.2-1.4 4-2.6.9-1.3.4-2.9 0-4.3s-.9-2.7-1.4-4c1.6-.2 3.5-3.3 4.1-4.3.4-.7.8-1.4 1.1-2.3.3-.2.5-.6.3-.9.5-1.6.6-3.3 0-4.8-.7-1.8-3-4.2-5.2-3.8-2.1.4-3.3 2.8-4.1 4.8-.1 0-.3 0-.4.1.3-1.2 1.2-2.2 2.1-3.4 1-1.3 1.7-2.6 1.9-4.3.3-2 0-4.1-.2-6.2V55c-.2-2.1-.3-4.2-.6-6.3-.7-3.9-3.7-6.1-5.8-9.2-1.2-1.7-2.1-3.5-3.4-5.2-1.2-1.5-2.6-2.9-4.1-4.1-6.8-5.4-15.4-7.3-23.7-9.1-.2 0-.4 0-.6.1-6.2-1.9-12.9-1.8-19.1.3-5.3 1.8-10.3 4.9-13.9 9.2-4.4 5.2-8.1 12-9.6 18.6-3.4 15 3.4 29.7 5.8 44.3 0 .2.2.4.4.5.1.8.2 1.7.4 2.5-1.9 4.4-4.6 8.4-7.8 12-1.6 1.7-3.3 3.3-5.1 4.7-1 .8-2.1 1.5-3.1 2.2-.8.5-1.8.9-2.4 1.6-.5.5-.7 1.2-.7 1.9-4.8.5-9.5 1.7-14 3.6-3.7 1.6-8.2 3.3-8.2 7.9 0 8.7 5.6 16.3 11.5 22.1 6 6 13 11.5 20.6 15.5 7.9 4.2 16.4 6.9 25.1 8.7 15.9 3.3 32.9 4.6 48.9 1.2.4.2.9.1 1-.2 1.4-.3 2.8-.7 4.1-1.1 7.5-2.2 14.8-5.6 21.1-10.2 2.9-2.2 5.6-4.6 8.1-7.3 2.4-2.6 5.4-6 6.4-9.4.5-2.1-.2-4-1-5.9zm-34.2-72.8s0 .1 0 0zm7.2 4.3c-.2.3-2.6 3.7-2.9 3.5-.2-.2-.4-.2-.6-.1 0-.1-.1-.1-.1-.2-.6-1.2-1.3-2.4-2-3.7v-.2c-.1-1.2-.1-2.4-.1-3.6 2.1.9 4.4 1.4 6.5 2.3-.2.8-.5 1.4-.8 2zm-2.6-9.5c2.3-1 4.1 2.9 4.2 4.4 0 .6-.1 1.2-.2 1.8-2.1-.9-4.5-1.4-6.6-2.4.5-1.4 1.4-3.3 2.6-3.8z"></path>
        <path d="M28.4 128.2c-.6 1-.5 2.3-.4 3.4.6 7.6 5.2 14.1 10.4 19.3 5.5 5.6 11.8 10.7 18.6 14.6 7 4.1 14.7 6.8 22.6 8.8 16.2 4 35.3 5.8 52.5 2.2-.7-4.3-2.5-8.3-5.2-11.6-2 1.7-5.6 1.7-8 1.8-4.4.1-8.7-.5-13-1.3-7.9-1.6-15.8-3.8-23.4-6.3-7.3-2.4-14.5-5.2-21.1-9.1-3.2-1.9-6.2-4-9.1-6.4-.8-.6-2.2-1.5-2-2.6.1-1.3 1.8-1.6 2.8-1.9 2.5-.7 5.1-1.2 7.6-1.9-3.8-1.6-6.6-4.7-8.5-8.3-1.1-2.2-2-4.6-2.7-6.9-.2-.5-.4-1.1-.5-1.6-4.2.4-8.3 1.4-12.2 2.9-1.9.7-3.7 1.6-5.5 2.6-1 .6-2.3 1.2-2.9 2.3zm4 9.3c-.2-.7-.3-1.3-.2-2 0-.4.3-.7.7-.7.4 0 .8.3.7.7-.1.6 0 1.1.2 1.6.3.9-1.1 1.3-1.4.4zm2-4.8c-.4.9-1.8.5-1.4-.4 1.1-2.7 3.2-4.6 6-5.5.9-.3 1.3 1.1.4 1.4-2.2.7-4.1 2.3-5 4.5z" fill="#9DA0A5" data-color="1"></path>
        <path d="M54.9 115.2c-1.5 1.1-4.6 2.3-4.6 4.4v.3c.4 2.2 1.4 4.5 2.3 6.5 1.8 4.2 4.7 8.2 9.2 9.8.3.1.5.4.5.7 1.3-.4 2.6-.9 3.8-1.6 3.9-2.1 7.1-5.2 9.4-8.9.5-.8 1.8-.1 1.3.7-3.2 5.1-8 9.1-13.7 11.1l-.9.3c-1.5.5-3 .8-4.5 1.1-.9.2-1.7.4-2.6.6-.5.1-2.6.4-2.9.8-.5.7.7 1.2 1.2 1.7.8.7 1.6 1.3 2.5 2 1.4 1 2.8 2 4.2 2.9 12 7.6 25.8 11.5 39.4 14.9 4.5 1.1 8.9 2.2 13.5 2.7 2.2.2 4.4.3 6.6.2 1.8-.1 5-.1 6.5-1.5-.4-.2-.9-.5-1.3-.7-1.8-1-3.5-2.1-5.2-3.3-1.8-1.2-3.5-2.4-5.2-3.7-4.5-3.4-8.8-7.2-12.9-11l-.3-.3c-6-5.6-12.3-11.1-17.6-17.4-5.7-6.6-10.1-14.2-13.3-22.3-.1-.3 0-.5.1-.7-.9-1.7-1.5-3.5-2-5.3-3.2 6.2-7.8 11.8-13.5 16zm1.8 5.7c-.7.6-1.8-.4-1-1 .8-.7 1.8-1.3 2.8-1.7.4-.2.8-.1 1 .3.2.3.1.8-.3 1-1 .3-1.8.8-2.5 1.4zm4-4.5c-.8.5-1.5-.7-.7-1.3 2.7-1.8 5.4-3.6 7.1-6.5.5-.8 1.8-.1 1.3.7-1.9 3.2-4.8 5.2-7.7 7.1z" fill="#9DA0A5" data-color="1"></path>
        <path d="M69 60.8c0 .9-1.5.9-1.5 0 .1-1.6.2-3.1.5-4.6.2-.9 1.6-.5 1.4.4-.2 1.4-.3 2.8-.4 4.2zm.8 6c-.4-2.3-.5-4.7.4-6.9 1.5-3.4 5.3-5.2 8.9-4.8 1.3.2 2.6.6 3.6 1.3 0-.1.1-.1.1-.2 4.8-5.5 11.6-1.4 16.9 1.1.9.4 1.7.8 2.6 1.2.8-.8 1.5-1.7 2.3-2.5 1.6-1.7 3.9-3.5 5.1-5.5.7-1.3.5-3.1 0-4.7-5.7.4-10.5 3.8-14.9 7.2-.8.6-1.5-.7-.7-1.3 4.6-3.4 9.3-6.8 15.2-7.3l-.6-1.5c-.2-.6-.5-1.2-.7-1.8h-.1c-3.1-.6-6 1.2-8.6 2.6-2.5 1.3-4.9 2.6-7.4 3.8-.8.4-1.6-.8-.7-1.3 3.1-1.6 6.1-3.2 9.2-4.8 2.3-1.1 4.5-2.1 7-1.9-.5-1.2-1.1-2.4-1.6-3.6-2.2-.4-4.6.9-6.6 1.7-2.1.9-4.3 1.7-6.4 2.6-.9.3-1.3-1.1-.4-1.4 2.6-1 5.2-2.1 7.8-3.1 1.7-.7 3.2-1.3 5-1.3-1.5-3.8-2.6-7.7-2.1-11.8-10.6-3.1-22.7.2-30.2 8.3-2.3 2.4-4 5.3-5.6 8.2-1.8 3.1-3.3 6.3-4.2 9.8-1.8 7-1.1 14.4.3 21.4 1.5 7.3 3.7 14.3 5 21.6 2.1-2.6 3.8-5.6 4.9-8.8.1-.2.2-.4.4-.5-1-2.3-1.4-5-1.9-7.4-.8-2.7-1.5-5.6-2-8.4zm1.1-14.9c-.3.9-1.7.5-1.4-.4.4-1.3 1.1-2.5 2-3.6.6-.7 1.6.3 1 1-.7.9-1.3 1.9-1.6 3zm4-7.3c-.5.8-1.8.1-1.3-.7 2.6-4.5 6-8.5 10-11.7 3.8-3 8.5-6.4 13.5-6.4.9 0 .9 1.5 0 1.5-4.9 0-9.8 3.6-13.4 6.7-3.5 3-6.4 6.6-8.8 10.6z" fill="#FCF6EB" data-color="2"></path>
        <path d="m74.1 109.7-.6-.6c2.3 5 5.2 9.7 8.5 14.1 4.5 5.9 10 11 15.4 16.1 1.6 1.5 3.2 3 4.8 4.4.2 0 .4 0 .5.2 2.2 1.8 4.7 3.1 7.4 4 .9-2.1 1.3-4.3 1.5-6.5.3-3.8 0-7.7.4-11.4-.5-.1-1.1-.3-1.6-.4-1.6-.4-3.2-.9-4.8-1.4-5.8-1.9-11.5-4.4-16.8-7.5-5.3-3-10.5-6.6-14.7-11z" fill="#FFFFFF" data-color="3"></path>
        <path d="M84 57.3c.5.4 1 .9 1.4 1.5.1-.2.3-.2.6-.2 2.2.2 4 1.2 5.9 2.3 2.2 1.3 5.1 2.6 7.4.8.7-.6 1.4-1.3 2.1-2-2.7-1.3-5.5-2.6-8.2-3.7-3.4-1.5-6.7-1.6-9.2 1.3z" fill="#FCF6EB" data-color="2"></path>
        <path d="M94.7 95.9c-1.3 1.3-2.4 2.8-3.3 4.4 2.1 2.5 4 5 5.7 7.7 1.9 2.9 3.5 6.1 5.4 8.9 1.9 2.8 4.4 5.2 7.5 6.7 3.5 1.6 6.5 1.1 10.1.3 1.3-.3 2.7-.4 4-.1 1.3.2 2.4.7 3.6.8.6.1 1.3 0 1.9-.2 2.4-.6 4.3-2.4 5.7-4.4-.2-.4.2-.8.6-.9.3-.4.5-.9.7-1.3 2.8-5.5 2.5-12.6-1.4-17.5-1.4.1-2.9-.2-4.4-.3-3.1-.3-5.9 1-8.2 3.1-.7.6-1.7-.4-1-1 2.8-2.5 6-3.9 9.8-3.4 1.5.2 2.8.4 4 .1.9-.2 1.7-.6 2.5-1.4 1.3-1.3 1.9-2.7.7-4.3-.7-.9-1.6-1.7-2.4-2.5-.2-.2-.3-.4-.2-.7-.3-.1-.5-.2-.8-.3-2.1-.5-4.3.7-6.3-.1-.5-.2-1-.5-1.3-.8 0 .2-.1.5-.3.6-2 1.4-3.9 3.1-5.6 4.8-1.5 1.5-2.7 3.3-4.2 4.8-1.8 1.9-4.8 3.3-7 1.7-.5.2-1.2-.2-1-.9 0-.1.1-.2.1-.3v-.2c.2-1-.1-1.4-1.1-2-.9-.5-1.7-.9-2.6-1.4-1.8-1-4.4-2.9-6.4-3-1.8 0-3.5 1.8-4.8 3.1zm8.6 13.9c-.6-2.2.3-4.5 2.2-5.7.8-.5 1.5.8.7 1.3-1.4.9-2 2.5-1.5 4.1.3.8-1.1 1.2-1.4.3zm4.1 4.7c-.6-2.5.1-5 1.8-6.8.6-.7 1.7.3 1 1a6.03 6.03 0 0 0-1.5 5.4c.4.9-1.1 1.3-1.3.4zm5.7 7.4c-1.1-3.2-2.6-8.6-.3-11.5.6-.7 1.8 0 1.3.7-2 2.6-.4 7.6.5 10.4.2.9-1.2 1.3-1.5.4zm19-.9c-.5.8-1.8 0-1.3-.7s.8-1.4 1-2.2c.2-.9 1.6-.5 1.4.4-.2.8-.6 1.7-1.1 2.5zm2.2-5.3c-.4.8-1.7.1-1.3-.7 1.7-3.3 1.8-7.1.1-10.4-.4-.8.8-1.6 1.3-.7 1.9 3.7 1.9 8.1-.1 11.8z" fill="#FCF6EB" data-color="2"></path>
        <path d="M110.3 149.5c-1-.3-1.9-.7-2.9-1.1 1.9 1.7 3.8 3.3 5.8 4.8.3.2.6.5.9.7-.2-3.4-.1-6.7.3-10.1-.6-.3-1.1-.7-1.5-1.1-.3 2.1-.7 4.1-1.6 6.1 0 .1-.1.2-.1.2-.2.4-.5.6-.9.5z" fill="#FFFFFF" data-color="3"></path>
        <path d="M113.4 130.2c-.3 3.5-.1 7.1-.4 10.6l.1.1c.7.9 1.6 1.5 2.6 1.9 1.2.5 2.6.6 3.9.1.7-.2 1.3-.6 1.8-1.1 1.3-1.3 1.9-3.2 1.6-5-.6-.8-1.2-1.5-1.8-2.2-1.2-1.4-3.5-4.4-5.4-4.5-.2 0-.4-.1-.5-.2l-.9.3h-1z" fill="#EA5D4F" data-color="4"></path>
        <path d="M116.7 126.2c.4.9.3 1.8-.1 2.5 1.9.5 3.5 2.5 4.8 3.9.9 1 1.8 2 2.6 3 .2.1.4.2.4.5v.1c.4.6.9 1.2 1.3 1.8.6-1.5 1.5-2.7 2.6-3.9.4-.4 1-.9 1.2-1.4.3-.9 0-1.9-.4-2.7-.5-1.4-1.2-2.7-2-4l-1.8-.3c-1.9-.5-3.5-.6-5.5-.1-1 .1-2.1.4-3.1.6z" fill="#FFFFFF" data-color="3"></path>
        <path d="M120.7 144.1c-1.5.7-3.3.8-4.8.3-.4 3.6-.5 7.1-.2 10.7 2.1 1.6 4.3 3.1 6.6 4.6 1.3.8 2.7 2 4.2 2.5.3.1.5.1.7.2.8 0 1-.5 1.3-1.3.4-1 .8-1.9 1.2-2.9.1-.2.1-.3.2-.5l-.2-.2c-2.1-4.9-4.6-9.7-7.6-14.2-.5.3-.9.6-1.4.8zm-3.1 2.1c.1-.9 1.5-.9 1.5 0-.1 1.5-.1 3.1.1 4.6.1.9-1.4.9-1.5 0-.1-1.5-.1-3-.1-4.6zm2.2 8.2v.2s0 .1.1.1c.2.3.1.8-.3 1-.3.2-.8.1-1-.3-.3-.5-.4-1.1-.2-1.7.1-.4.5-.6.9-.5.4.1.6.5.5.9v.3z" fill="#EA5D4F" data-color="4"></path>
        <path d="M120.8 70.1c.1-.5.2-.9.4-1.4-.1 0-.1-.1-.2-.1 0 .1 0 .2-.1.3-.2.5-.2.9-.1 1.2z" fill="#FFFFFF" data-color="3"></path>
        <path d="M124.5 138.9c-.2 1.2-.6 2.3-1.4 3.3 2.8 4.3 5.2 8.7 7.3 13.4 1.7-6.6 1.2-13.7-1.4-20-1.1 1.3-1.9 2.7-2.3 4.4-.2.6-1 .7-1.3.2-.4-.5-.7-.9-.9-1.3z" fill="#FFFFFF" data-color="3"></path>
        <path d="M124.6 78c3.6 2.1 6.8-2.2 7.9-5.1.3-.8.6-1.7.7-2.6.6-2.8.5-5.9-1.3-8-.1-.1-.1-.2-.2-.3-3.2-1.8-6.4 1.8-8 4.6h.3c2.4.1 4 1.7 5.5 3.5.6.7-.5 1.8-1 1l-1.2-1.5c-.5 2.1-2.9 3.5-5.1 3.3-.1 0-.2 0-.3-.1 0 2.1.7 4 2.7 5.2z" fill="#F4CABD" data-color="5"></path>
        <path d="M122.3 70.2c-.1.4-.2.7-.2 1.1.3.1.6.2 1 .1 1.4-.1 2.9-1.1 2.9-2.5 0-.1 0-.2.1-.3-.1-.1-.2-.1-.3-.2.3 1.2-.9 2.6-2.2 2.2-.1 0-.1 0-.1-.1h-.6c-.3-.1-.5-.2-.6-.3z" fill="#FFFFFF" data-color="3"></path>
        <path d="M128.4 164.5c2.7 3.5 4.4 7.5 5.1 11.8 13-3 24.9-9.1 33.7-19.7 1.4-1.6 2.6-3.4 3.7-5.2 1.5-2.5 1.2-4.5.1-7.1-1.8-4.4-4-8.5-6.6-12.5-1.4-2.1-2.9-4-5.2-5.1-1.9-.9-4.1-1.3-6.2-1.8-4.4-.9-8.8-1.7-13.2-2.3.9.9 1.8 1.7 2.8 2.5 1.6 1.3 1 3 .7 4.8 1.3.5 2.3 1.4 3 2.7 2.2 4 1.4 8.8-.2 12.8-3.4 8.4-9.8 15.2-17.7 19.1zm25.9-31.4c-.9-.3-.5-1.7.4-1.4 5 1.9 8.7 6 9.9 11.2.2.9-1.2 1.3-1.4.4-1.1-4.7-4.4-8.5-8.9-10.2zm9.2 17c-.3-1-.5-2.1-.3-3.1.1-.9 1.6-.9 1.5 0-.1.9 0 1.8.3 2.7.2.9-1.2 1.3-1.5.4z" fill="#9DA0A5" data-color="1"></path>
        <path d="M133.3 61.4c1.7 2.2 2.1 5.1 1.7 7.9.6-.3 1.2-.4 1.9-.4.1-.5.3-1 .5-1.4.7-1.2 1.7-2.2 2.4-3.3 1.2-1.8 1.3-3.8 1.1-5.9-.1-.7-.1-1.5-.2-2.2-1.1.5-2 1.2-3.3 1-1.3-.2-2.3-1.2-3.2-2-2.7-2.3-6.2-2.2-9.2-.4-.8.5-1.5-.8-.7-1.3 2-1.3 4.4-1.9 6.8-1.5 1.2.2 2.3.7 3.2 1.4.6.4 1 .9 1.6 1.4 1.4 1.1 2.7.8 4.1.1.2-.1.4-.1.5-.1-.1-.6-.1-1.2-.2-1.8-.2-2-.2-4.1-1-6-1.3-2.9-4-4.9-5.7-7.6-1.8-2.9-3.7-5.6-6.4-7.8-6.5-5.2-14.9-7.1-22.9-8.8-.6 4.2.7 8.2 2.4 12 .7 1.7 1.5 3.4 2.2 5 .6 1.4 1.4 3.1 2 4.9.8 2.6 1.1 5.4-.7 7.5-1.7 2.1-3.7 3.9-5.6 5.8-.3.3-.6.7-1 1.1 5.7 2.6 11.5 5.3 17.3 7.9.3-.1.6-.2 1-.3 0-.1.1-.1.1-.2 1.8-3.6 6.4-8.8 10.9-5.8.3.4.4.6.4.8zm-4.4-12.9c-.9.3-1.3-1.2-.4-1.4 1.3-.4 2.7-.6 4-.1 1.3.5 2.9 2.9 4.4 2 .8-.5 1.6.8.7 1.3-1.1.6-2.2.5-3.2-.2-.5-.3-1-.8-1.5-1.2-1.3-.9-2.6-.8-4-.4z" fill="#F4CABD" data-color="5"></path>
        <path d="M74 68.3c.1.9-1.4.9-1.5 0-.2-3 .2-6.3 2.5-8.5 1.9-1.8 4.8-2.1 6.9-.6.8.6 0 1.8-.7 1.3-2-1.5-4.6-.7-6 1.3-1.2 2-1.3 4.3-1.2 6.5zm10 8.1c-.4.8-1.7.1-1.3-.7l-.6-.7c-.2-.3-.2-.7-.2-1 0-.4.4-3.1-.8-2.4-.8.5-1.5-.8-.7-1.3 1.3-.8 2.8.2 3 1.6.2 1-.3 1.9.3 2.8.4.5.6 1 .3 1.7zm-2 1.1c.3-.9 1.7-.5 1.4.4-.5 1.4-2.1 2.2-2.9.6-.6-1.1-.2-2.1-1.8-2.4-1-.2-1.8-.4-2.5-1.2-1.4-1.7-.9-4.2 0-6 .4-.8.9-1.5 1.8-1.9 1.6-.7 3.6.1 4.1-2.3.2-.9 1.6-.5 1.4.4-.3 1.2-.9 2.2-2.1 2.7-.6.3-1.2.3-1.8.4-1.7.2-2.3 1.5-2.7 3-.4 1.5-.1 2.8 1.5 3.4.6.2 1.3.2 1.9.5.4.2.8.5 1 .9.1.2.1.4.2.6.1-.2.4 1.1.5.9zm54.6 10.4c-.8-.4-1.8-.5-2.6-.1-.9.4-1.6-.9-.7-1.3 1.3-.6 2.8-.6 4.1.1.8.4 0 1.7-.8 1.3zm-16.1-15.8c-.9-.7-1.4-1.9-1.1-3-1.2.3-2.3.5-3.6.3-.9-.1-.5-1.5.4-1.4s1.8 0 2.7-.2c-5.4-2.5-10.8-4.9-16.1-7.4-1.1 1.2-2.2 2.4-3.6 3.1-4.6 2.5-8.7-2.7-12.9-3.3.8 1.3 1.3 2.7 1.5 4.2.1.9-1.3 1.3-1.4.4-.2-1.6-.9-3.2-1.8-4.6-.4-.6-.9-1.2-1.5-1.7-1.2-1.1-2.8-1.8-4.5-1.8-4.8-.2-7.8 3.6-7.4 8.2.4 4.8 1.8 9.7 2.9 14.3.3 1.3.6 2.6 1.3 3.8.5.9 1.1 1.7 2 2.3 2.2 1.4 7.7 1.7 7-2.4-.2-.9 1.3-1.3 1.4-.4.8 4.4-4.2 6.1-7.7 4.7-1.6-.7-2.8-1.7-3.6-3-1.2 3.4-3.1 6.6-5.4 9.3.1 1 .2 1.9.4 2.8.1.2.1.4.1.6.5 2.7 1.3 5.2 2.6 7.6.7 1.3 1.6 2.6 2.7 3.7 3.4 3.7 7.7 6.8 11.9 9.5 4.3 2.7 8.8 5.1 13.5 7 2.3.9 4.7 1.8 7.1 2.5l3.3.9c.4.1 1.4.4 2.5.5 1.6.2 3.3 0 2.5-1.6-.1-.3-.1-.5 0-.7-5.2.2-10-3.1-13.1-7-2.1-2.7-3.7-5.9-5.5-8.9-2.1-3.3-4.4-6.5-6.9-9.5-.3-.3-.2-.7 0-.9 0-.1 0-.2.1-.3 1.3-2.3 2.9-4.3 4.9-6 1.4-1.2 3.5-3.1 5.5-2.5 1.2.4 2.3 1.2 3.4 1.8l4.5 2.4c.7.4 2.7 1 3.1 1.9.3.6.1 1.3-.2 2 2.9 2.5 6.3-2.7 8-4.6 2.2-2.5 4.7-4.7 7.4-6.7.1-.1.3-.1.4-.1-1.2-2-.3-4.8 1.3-6.6.6-.7 1.7.3 1 1-1.4 1.5-2.3 4.3-.1 5.6 1.6.9 3.9 0 5.7.1.9.1 1.7.4 2.4.8.1.1.2.2.4.2.8.6.7.7 1.7.6.8-.1 1-.1 1.6-.5 1.3-.7 2-1.7 1.7-3.2-.4-2-1.1-4-1.9-5.8-.8-1.7-1.6-3.3-2.5-4.9v-.1c-.8-1.5-1.5-3.1-1.6-4.7-.5 0-1.1.1-1.5.5-.2.1-.4.2-.5.2-.3 1.3-.7 2.4-1.2 3.5-1.8 3.7-5.9 7-9.9 4.3-2.9-1.5-3.6-4.2-3.4-6.8z" fill="#F4CABD" data-color="5"></path>
        <path d="M139 124.2c-.9-.9-1.8-1.8-2.6-2.8-1.1 1.4-2.5 2.6-4.1 3.5-1.1.6-2.3 1-3.4 1.1 1.2 2 2.7 4.8 2.1 6.8-.2.6-.5 1.1-.9 1.5 2.8 6.6 3.5 14 1.9 21-.2.7-.3 1.4-.5 2-.3 1-.6 1.9-1 2.9-.2.6-.5 1.3-.8 2 6.1-3.5 11.1-8.7 14.2-15.1 1.8-3.7 3.2-8.2 1.9-12.2-.7-2-1.9-3.1-3.6-3.7-.5-.2-1-.3-1.5-.4-2.4-.5-4.7-1-7.1-1.4-.9-.2-.5-1.6.4-1.4 2.7.5 5.3 1 8 1.6.2-1.5.5-2.4-.7-3.6-.8-.7-1.6-1.2-2.3-1.8z" fill="#9DA0A5" data-color="1"></path>
    </g>
</svg>