<svg width="44" height="44" viewBox="0 0 44 44" fill="none" xmlns="http://www.w3.org/2000/svg">
<mask id="mask0_2597_20324" style="mask-type:alpha" maskUnits="userSpaceOnUse" x="0" y="0" width="44" height="44">
<rect y="3.74746" width="40" height="40" transform="rotate(-5.37573 0 3.74746)" fill="#D9D9D9"/>
</mask>
<g mask="url(#mask0_2597_20324)">
<path d="M21.4247 37.5476L20.3707 26.3463L13.1947 35.0025L10.3775 32.6699L17.5159 24.0549L6.36936 25.1038L6.02381 21.4317L17.2525 20.375L8.56783 13.1896L10.8749 10.3509L19.5398 17.5165L18.4891 6.35084L22.1454 6.00677L23.1943 17.153L30.3531 8.51804L33.1957 10.8721L26.0039 19.5515L37.2206 18.496L37.5661 22.1681L26.4241 23.2166L35.0286 30.3502L32.696 33.1674L24.0266 25.998L25.0811 37.2035L21.4247 37.5476Z" fill="#F39E8A"/>
</g>
</svg>
