<svg width="37" height="37" viewBox="0 0 37 37" fill="none" xmlns="http://www.w3.org/2000/svg">
<path d="M18.3878 34.7541C17.6949 34.7541 17.0115 34.6016 16.3375 34.2967C15.6636 33.992 15.1572 33.5171 14.8186 32.872H14.3206C13.4244 32.7708 12.6829 32.3944 12.096 31.7427C11.5091 31.0909 11.2157 30.3169 11.2157 29.4208V24.0427C9.74567 22.9488 8.612 21.5849 7.81467 19.9509C7.01734 18.3172 6.61868 16.5703 6.61868 14.7103C6.61868 11.458 7.76717 8.6834 10.0641 6.38668C12.3609 4.0897 15.1354 2.94122 18.3878 2.94122C21.6402 2.94122 24.4147 4.0897 26.7115 6.38668C29.0084 8.6834 30.1569 11.458 30.1569 14.7103C30.1569 16.5558 29.7583 18.2991 28.9609 19.9402C28.1636 21.5813 27.0299 22.9488 25.5599 24.0427V29.4208C25.5599 30.3169 25.2665 31.0909 24.6796 31.7427C24.0927 32.3944 23.3512 32.7708 22.455 32.872H21.9187C21.58 33.5171 21.0765 33.992 20.4082 34.2967C19.7398 34.6016 19.0664 34.7541 18.3878 34.7541ZM14.9699 29.4208H21.8057V27.582H14.9699V29.4208ZM14.9699 25.7432H21.8057V23.9044H14.9699V25.7432ZM13.2545 20.8864H17.2952V16.9974L13.8207 13.5228L15.3614 11.982L18.3878 15.0084L21.4142 11.982L22.9549 13.5228L19.4804 16.9974V20.8864H23.5211C24.4482 20.0947 25.1602 19.165 25.6572 18.0972C26.1542 17.0297 26.4027 15.9007 26.4027 14.7103C26.4027 12.4841 25.6235 10.5917 24.0651 9.03303C22.5065 7.47464 20.614 6.69545 18.3878 6.69545C16.1616 6.69545 14.2691 7.47464 12.7105 9.03303C11.1521 10.5917 10.3729 12.4841 10.3729 14.7103C10.3729 15.8752 10.6214 16.9977 11.1184 18.078C11.6154 19.1586 12.3274 20.0947 13.2545 20.8864Z" fill="#007037"/>
</svg>
