<svg width="20" height="20" viewBox="0 0 20 20" fill="none" xmlns="http://www.w3.org/2000/svg">
<mask id="mask0_19_387" style="mask-type:alpha" maskUnits="userSpaceOnUse" x="0" y="0" width="20" height="20">
<rect width="20" height="20" fill="#D9D9D9"/>
</mask>
<g mask="url(#mask0_19_387)">
<path d="M8.89618 17.9004V15.6921H15.6806V9.76357C15.6806 8.22496 15.1264 6.92503 14.0181 5.86378C12.9096 4.80239 11.5743 4.27169 10.0122 4.27169C8.45 4.27169 7.11077 4.80239 5.99452 5.86378C4.87827 6.92503 4.32014 8.22891 4.32014 9.77544V15.2592H3.15702C2.63716 15.2592 2.19216 15.0783 1.82202 14.7165C1.45174 14.3548 1.2666 13.9134 1.2666 13.3923V11.5254C1.2666 11.2281 1.34348 10.9484 1.49723 10.6865C1.65084 10.4245 1.85174 10.2054 2.09993 10.029L2.12723 9.44294C2.17542 8.40433 2.41827 7.43905 2.85577 6.54711C3.29327 5.65516 3.86549 4.87919 4.57244 4.21919C5.27924 3.55919 6.09896 3.04093 7.0316 2.6644C7.96424 2.28787 8.95382 2.09961 10.0004 2.09961C11.0469 2.09961 12.0349 2.28787 12.9645 2.6644C13.8942 3.04093 14.714 3.55968 15.4239 4.22065C16.1338 4.88148 16.7059 5.65787 17.1403 6.54982C17.5748 7.44176 17.8192 8.40704 17.8735 9.44565L17.9008 10.0109C18.1647 10.1672 18.3695 10.3763 18.5154 10.6382C18.6612 10.9 18.7341 11.1815 18.7341 11.4827V13.4348C18.7341 13.763 18.6651 14.0748 18.527 14.3702C18.3891 14.6657 18.1803 14.8995 17.9008 15.0717V15.7038C17.9008 16.3035 17.6924 16.8195 17.2758 17.2519C16.8591 17.6843 16.3509 17.9004 15.7512 17.9004H8.89618ZM7.64264 11.9846C7.39014 11.9846 7.17813 11.8992 7.0066 11.7284C6.83521 11.5577 6.74952 11.3461 6.74952 11.0936C6.74952 10.8409 6.83494 10.6289 7.00577 10.4575C7.17646 10.286 7.38806 10.2002 7.64056 10.2002C7.89306 10.2002 8.10507 10.2857 8.2766 10.4565C8.44813 10.6273 8.53389 10.839 8.53389 11.0915C8.53389 11.344 8.44848 11.5559 8.27764 11.7273C8.10681 11.8988 7.89514 11.9846 7.64264 11.9846ZM12.3601 11.9846C12.1076 11.9846 11.8956 11.8992 11.7241 11.7284C11.5526 11.5577 11.4668 11.3461 11.4668 11.0936C11.4668 10.8409 11.5522 10.6289 11.7231 10.4575C11.8939 10.286 12.1056 10.2002 12.3581 10.2002C12.6106 10.2002 12.8226 10.2857 12.9941 10.4565C13.1655 10.6273 13.2512 10.839 13.2512 11.0915C13.2512 11.344 13.1658 11.5559 12.9949 11.7273C12.8242 11.8988 12.6126 11.9846 12.3601 11.9846ZM5.16244 10.0571C5.0966 8.68697 5.545 7.52509 6.50764 6.57148C7.47014 5.61801 8.64431 5.14128 10.0301 5.14128C11.2114 5.14128 12.2531 5.51405 13.1551 6.25961C14.0574 7.00503 14.6057 7.96134 14.8001 9.12857C13.6383 9.11468 12.5517 8.83725 11.5401 8.29627C10.5288 7.75516 9.73438 6.97801 9.15702 5.96482C8.90341 6.95815 8.41896 7.81426 7.70368 8.53315C6.98841 9.25204 6.14132 9.76003 5.16244 10.0571Z" fill="#1F1801"/>
</g>
</svg>
