<svg width="20" height="20" viewBox="0 0 20 20" fill="none" xmlns="http://www.w3.org/2000/svg">
<mask id="mask0_19_381" style="mask-type:alpha" maskUnits="userSpaceOnUse" x="0" y="0" width="20" height="20">
<rect width="20" height="20" fill="#D9D9D9"/>
</mask>
<g mask="url(#mask0_19_381)">
<path d="M7.08368 10.1176C7.69063 10.1176 8.20327 9.89764 8.6216 9.45778C9.04007 9.01792 9.33146 8.49514 9.49577 7.88945L8.06369 7.53882C7.99424 7.82077 7.88007 8.07347 7.72118 8.29695C7.56216 8.52042 7.3491 8.63215 7.08202 8.63215C6.81507 8.63215 6.60264 8.52042 6.44473 8.29695C6.28681 8.07347 6.17313 7.82077 6.10368 7.53882L4.6716 7.88945C4.83591 8.49514 5.1273 9.01792 5.54577 9.45778C5.9641 9.89764 6.47674 10.1176 7.08368 10.1176ZM9.99868 14.7009C10.5651 14.7009 11.1119 14.5676 11.6393 14.3011C12.1668 14.0344 12.6615 13.6384 13.1235 13.113L12.0301 12.1267C11.7168 12.4758 11.3865 12.741 11.0393 12.9224C10.6921 13.1039 10.3458 13.1947 10.0004 13.1947C9.65493 13.1947 9.30862 13.1039 8.96139 12.9224C8.61417 12.741 8.28389 12.4758 7.97056 12.1267L6.87723 13.113C7.36084 13.6384 7.86042 14.0344 8.37598 14.3011C8.89139 14.5676 9.4323 14.7009 9.99868 14.7009ZM12.917 10.1176C13.524 10.1176 14.0366 9.89764 14.4549 9.45778C14.8734 9.01792 15.1648 8.49514 15.3291 7.88945L13.897 7.53882C13.8276 7.82077 13.7134 8.07347 13.5545 8.29695C13.3955 8.52042 13.1824 8.63215 12.9154 8.63215C12.6484 8.63215 12.436 8.52042 12.2781 8.29695C12.1201 8.07347 12.0065 7.82077 11.937 7.53882L10.5049 7.88945C10.6692 8.49514 10.9606 9.01792 11.3791 9.45778C11.7974 9.89764 12.3101 10.1176 12.917 10.1176ZM9.99931 18.7336C8.79223 18.7336 7.6582 18.5051 6.59723 18.048C5.53625 17.5908 4.61112 16.9676 3.82181 16.1784C3.03264 15.3891 2.40945 14.4636 1.95223 13.4019C1.49514 12.3403 1.2666 11.2059 1.2666 9.99882C1.2666 8.79174 1.49514 7.65771 1.95223 6.59674C2.40945 5.53577 3.03264 4.61063 3.82181 3.82132C4.61112 3.03215 5.5366 2.40896 6.59827 1.95174C7.65993 1.49465 8.79431 1.26611 10.0014 1.26611C11.2085 1.26611 12.3425 1.49465 13.4035 1.95174C14.4644 2.40896 15.3896 3.03215 16.1789 3.82132C16.9681 4.61063 17.5913 5.53611 18.0485 6.59778C18.5056 7.65945 18.7341 8.79382 18.7341 10.0009C18.7341 11.208 18.5056 12.342 18.0485 13.403C17.5913 14.464 16.9681 15.3891 16.1789 16.1784C15.3896 16.9676 14.4641 17.5908 13.4024 18.048C12.3408 18.5051 11.2064 18.7336 9.99931 18.7336ZM10.0004 16.5253C11.8144 16.5253 13.3554 15.8912 14.6235 14.623C15.8917 13.3549 16.5258 11.8139 16.5258 9.99986C16.5258 8.18583 15.8917 6.64479 14.6235 5.37674C13.3554 4.10854 11.8144 3.47445 10.0004 3.47445C8.18632 3.47445 6.64528 4.10854 5.37723 5.37674C4.10903 6.64479 3.47493 8.18583 3.47493 9.99986C3.47493 11.8139 4.10903 13.3549 5.37723 14.623C6.64528 15.8912 8.18632 16.5253 10.0004 16.5253Z" fill="#1F1801"/>
</g>
</svg>
