<svg width="20" height="20" viewBox="0 0 20 20" fill="none" xmlns="http://www.w3.org/2000/svg">
<mask id="mask0_19_390" style="mask-type:alpha" maskUnits="userSpaceOnUse" x="0" y="0" width="20" height="20">
<rect width="20" height="20" fill="#D9D9D9"/>
</mask>
<g mask="url(#mask0_19_390)">
<path d="M16.3025 6.07794C16.4847 6.07794 16.638 6.01627 16.7625 5.89294C16.8869 5.76961 16.9491 5.61683 16.9491 5.43461C16.9491 5.25239 16.8875 5.09905 16.7641 4.97461C16.6408 4.8503 16.488 4.78815 16.3058 4.78815C16.1236 4.78815 15.9702 4.84975 15.8458 4.97294C15.7213 5.09628 15.6591 5.24905 15.6591 5.43128C15.6591 5.6135 15.7208 5.76683 15.8441 5.89128C15.9675 6.01572 16.1202 6.07794 16.3025 6.07794ZM16.3041 8.16857C15.5408 8.16857 14.8941 7.90343 14.3639 7.37315C13.8336 6.84301 13.5685 6.19628 13.5685 5.43294C13.5685 4.67308 13.8336 4.02718 14.3639 3.49523C14.8941 2.96343 15.5408 2.69752 16.3041 2.69752C17.064 2.69752 17.7099 2.96343 18.2418 3.49523C18.7736 4.02718 19.0395 4.67308 19.0395 5.43294C19.0395 6.19628 18.7736 6.84301 18.2418 7.37315C17.7099 7.90343 17.064 8.16857 16.3041 8.16857ZM10.0039 4.93836C10.2934 4.93836 10.542 4.836 10.7498 4.63127C10.9575 4.42655 11.0614 4.17371 11.0614 3.87273C11.0614 3.58315 10.9582 3.33454 10.7516 3.1269C10.5452 2.91912 10.2946 2.81523 9.99975 2.81523C9.70142 2.81523 9.44989 2.91843 9.24517 3.12482C9.04045 3.33121 8.93809 3.5819 8.93809 3.8769C8.93809 4.1751 9.04045 4.42655 9.24517 4.63127C9.44989 4.836 9.70281 4.93836 10.0039 4.93836ZM9.99975 7.02898C9.12531 7.02898 8.38135 6.72225 7.76788 6.10877C7.15441 5.49516 6.84767 4.75121 6.84767 3.8769C6.84767 3.00621 7.15441 2.26315 7.76788 1.64773C8.38135 1.03232 9.12531 0.724609 9.99975 0.724609C10.8703 0.724609 11.6133 1.03232 12.2287 1.64773C12.8441 2.26315 13.1518 3.00621 13.1518 3.8769C13.1518 4.75121 12.8441 5.49516 12.2287 6.10877C11.6133 6.72225 10.8703 7.02898 9.99975 7.02898ZM6.81954 11.134C6.81954 11.5193 7.03586 11.9799 7.4685 12.5159C7.90114 13.0518 8.74489 13.8926 9.99975 15.0381C11.2346 13.9204 12.0734 13.0916 12.516 12.5517C12.9586 12.0118 13.18 11.5393 13.18 11.134C13.18 10.8605 13.0905 10.6287 12.9116 10.4386C12.7327 10.2483 12.5121 10.1532 12.2498 10.1532C12.0789 10.1532 11.9204 10.1909 11.7741 10.2663C11.628 10.3418 11.4994 10.4442 11.3883 10.5734L10.1175 11.9375H9.87288L8.60204 10.5734C8.49093 10.4442 8.36232 10.3418 8.21621 10.2663C8.0701 10.1909 7.91461 10.1532 7.74975 10.1532C7.47545 10.1532 7.25184 10.2483 7.07892 10.4386C6.906 10.6287 6.81954 10.8605 6.81954 11.134ZM4.72892 11.134C4.72892 10.3301 5.02406 9.61725 5.61434 8.99544C6.20461 8.3735 6.91642 8.06252 7.74975 8.06252C8.16461 8.06252 8.56802 8.146 8.95996 8.31294C9.35177 8.47989 9.69836 8.71433 9.99975 9.01628C10.3011 8.71433 10.6463 8.47989 11.0352 8.31294C11.4241 8.146 11.8289 8.06252 12.2498 8.06252C13.0831 8.06252 13.7949 8.3762 14.3852 9.00357C14.9754 9.63107 15.2706 10.3412 15.2706 11.134C15.2706 11.9155 14.9934 12.6859 14.4391 13.4452C13.8847 14.2045 12.7732 15.3451 11.1048 16.8669L9.99975 17.865L8.90642 16.8669C7.18711 15.2902 6.061 14.1364 5.52809 13.4054C4.99531 12.6745 4.72892 11.9173 4.72892 11.134ZM3.69371 6.07794C3.87593 6.07794 4.02927 6.01627 4.15371 5.89294C4.27816 5.76961 4.34038 5.61683 4.34038 5.43461C4.34038 5.25239 4.27871 5.09905 4.15538 4.97461C4.03204 4.8503 3.87927 4.78815 3.69704 4.78815C3.51482 4.78815 3.36149 4.84975 3.23704 4.97294C3.1126 5.09628 3.05038 5.24905 3.05038 5.43128C3.05038 5.6135 3.11204 5.76683 3.23538 5.89128C3.35871 6.01572 3.51149 6.07794 3.69371 6.07794ZM10.0623 18.6042V16.5136H16.5133V10.9865H14.2552V8.89586H16.3956C17.0109 8.89586 17.5327 9.11009 17.9612 9.53857C18.3897 9.96704 18.6039 10.4889 18.6039 11.1042V18.6042H10.0623ZM3.48621 16.5136H10.0623V18.6042H1.39559V11.1042C1.39559 10.4889 1.60829 9.96704 2.03371 9.53857C2.45913 9.11009 2.98253 8.89586 3.60392 8.89586H5.74434V10.9865H3.48621V16.5136ZM3.69538 8.16857C2.93204 8.16857 2.28531 7.90343 1.75517 7.37315C1.22503 6.84301 0.959961 6.19628 0.959961 5.43294C0.959961 4.67308 1.22503 4.02718 1.75517 3.49523C2.28531 2.96343 2.93204 2.69752 3.69538 2.69752C4.45524 2.69752 5.10114 2.96343 5.63309 3.49523C6.16503 4.02718 6.431 4.67308 6.431 5.43294C6.431 6.19628 6.16503 6.84301 5.63309 7.37315C5.10114 7.90343 4.45524 8.16857 3.69538 8.16857Z" fill="#1F1801"/>
</g>
</svg>
