<svg width="20" height="20" viewBox="0 0 20 20" fill="none" xmlns="http://www.w3.org/2000/svg">
<mask id="mask0_19_378" style="mask-type:alpha" maskUnits="userSpaceOnUse" x="0" y="0" width="20" height="20">
<rect width="20" height="20" fill="#D9D9D9"/>
</mask>
<g mask="url(#mask0_19_378)">
<path d="M14.7292 16.9375C14.7292 15.3264 14.4236 13.8125 13.8125 12.3958C13.2014 10.9792 12.3681 9.74306 11.3125 8.6875C10.2569 7.63194 9.02083 6.79861 7.60417 6.1875C6.1875 5.57639 4.67361 5.27083 3.0625 5.27083V3.0625C4.97431 3.0625 6.77181 3.42687 8.455 4.15562C10.1383 4.88437 11.6085 5.87653 12.8654 7.13208C14.1224 8.38764 15.1153 9.85826 15.8442 11.544C16.5731 13.2297 16.9375 15.0275 16.9375 16.9375H14.7292Z" fill="#1F1801"/>
</g>
</svg>
