<svg width="20" height="20" viewBox="0 0 20 20" fill="none" xmlns="http://www.w3.org/2000/svg">
<mask id="mask0_19_393" style="mask-type:alpha" maskUnits="userSpaceOnUse" x="0" y="0" width="20" height="20">
<rect width="20" height="20" fill="#D9D9D9"/>
</mask>
<g mask="url(#mask0_19_393)">
<path d="M2.93327 18.7339V9.95581H1.2666V3.89602H5.80014C5.74639 3.77102 5.7091 3.64158 5.68827 3.50769C5.66743 3.37394 5.65702 3.23345 5.65702 3.08623C5.65702 2.3447 5.91723 1.71713 6.43764 1.20352C6.9582 0.689911 7.59021 0.433105 8.33368 0.433105C8.64521 0.433105 8.94188 0.482341 9.22368 0.580813C9.50535 0.679285 9.76424 0.824772 10.0004 1.01727C10.2365 0.818661 10.4974 0.671647 10.7831 0.57623C11.0686 0.480814 11.3672 0.433105 11.6789 0.433105C12.419 0.433105 13.0482 0.689911 13.5664 1.20352C14.0846 1.71713 14.3437 2.3447 14.3437 3.08623C14.3437 3.2347 14.3317 3.37304 14.3079 3.50123C14.284 3.62942 14.2482 3.76102 14.2006 3.89602H18.7341V9.95581H17.0674V18.7339H2.93327ZM11.6789 2.26477C11.4428 2.26477 11.2449 2.3429 11.0851 2.49915C10.9254 2.65554 10.8456 2.84929 10.8456 3.0804C10.8456 3.31151 10.9254 3.50519 11.0851 3.66144C11.2449 3.81783 11.4428 3.89602 11.6789 3.89602C11.915 3.89602 12.1129 3.81783 12.2726 3.66144C12.4324 3.50519 12.5122 3.31151 12.5122 3.0804C12.5122 2.84929 12.4324 2.65554 12.2726 2.49915C12.1129 2.3429 11.915 2.26477 11.6789 2.26477ZM7.50035 3.0804C7.50035 3.31151 7.58021 3.50519 7.73993 3.66144C7.89966 3.81783 8.09757 3.89602 8.33368 3.89602C8.5698 3.89602 8.76771 3.81783 8.92743 3.66144C9.08716 3.50519 9.16702 3.31151 9.16702 3.0804C9.16702 2.84929 9.08716 2.65554 8.92743 2.49915C8.76771 2.3429 8.5698 2.26477 8.33368 2.26477C8.09757 2.26477 7.89966 2.3429 7.73993 2.49915C7.58021 2.65554 7.50035 2.84929 7.50035 3.0804ZM3.47493 6.10436V7.74748H9.01389V6.10436H3.47493ZM9.01389 16.5373V9.95581H5.1416V16.5373H9.01389ZM10.9868 16.5373H14.8591V9.95581H10.9868V16.5373ZM16.5374 7.74748V6.10436H10.9868V7.74748H16.5374Z" fill="#1F1801"/>
</g>
</svg>
