<svg width="20" height="20" viewBox="0 0 20 20" fill="none" xmlns="http://www.w3.org/2000/svg">
<mask id="mask0_19_384" style="mask-type:alpha" maskUnits="userSpaceOnUse" x="0" y="0" width="20" height="20">
<rect width="20" height="20" fill="#D9D9D9"/>
</mask>
<g mask="url(#mask0_19_384)">
<path d="M10.0239 18.7338L2.14703 10.8932L6.56099 5.43294H13.4749L17.8889 10.8932L10.0239 18.7338ZM3.58911 5.86878L1.44141 3.72107L3.00578 2.17753L5.14161 4.32523L3.58911 5.86878ZM8.91974 3.76628V0.724609H11.1164V3.76628H8.91974ZM16.4054 5.86878L14.8527 4.31607L17.0004 2.15669L18.5529 3.72107L16.4054 5.86878ZM10.0239 15.6586L13.7747 11.8904H6.2612L10.0239 15.6586ZM7.58828 7.62961L5.94974 9.69378H14.0864L12.4479 7.62961H7.58828Z" fill="#1F1801"/>
</g>
</svg>
