<svg width="33" height="40" viewBox="0 0 33 40" fill="none" xmlns="http://www.w3.org/2000/svg">
<path d="M1.85151 17.2705H0.623596C0.541503 17.2705 0.460216 17.2865 0.384401 17.3177C0.308586 17.3489 0.239734 17.3946 0.181797 17.4523C0.123859 17.5099 0.0779762 17.5783 0.0467798 17.6535C0.0155835 17.7288 -0.000312316 17.8094 4.64842e-06 17.8907V19.1099C-0.000312316 19.1912 0.0155835 19.2718 0.0467798 19.3471C0.0779762 19.4223 0.123859 19.4907 0.181797 19.5483C0.239734 19.606 0.308586 19.6517 0.384401 19.6829C0.460216 19.7141 0.541503 19.7302 0.623596 19.7302H1.85151C1.93381 19.7305 2.01535 19.7146 2.09144 19.6836C2.16754 19.6525 2.23668 19.6068 2.29487 19.5492C2.35306 19.4915 2.39916 19.423 2.43051 19.3476C2.46185 19.2722 2.47783 19.1914 2.47751 19.1099V17.8907C2.47783 17.8092 2.46185 17.7284 2.43051 17.653C2.39916 17.5776 2.35306 17.5091 2.29487 17.4514C2.23668 17.3938 2.16754 17.3481 2.09144 17.317C2.01535 17.286 1.93381 17.2701 1.85151 17.2705Z" fill="#1F1801"/>
<path d="M1.85151 22.0918H0.623596C0.541503 22.0918 0.460216 22.1079 0.384401 22.1391C0.308586 22.1703 0.239734 22.216 0.181797 22.2736C0.123859 22.3313 0.0779762 22.3997 0.0467798 22.4749C0.0155835 22.5501 -0.000312316 22.6307 4.64842e-06 22.7121V23.9336C3.42351e-06 24.0977 0.0656251 24.2551 0.182502 24.3714C0.299379 24.4876 0.457989 24.5533 0.623596 24.5539H1.85151C2.01754 24.5539 2.17676 24.4885 2.29416 24.3722C2.41156 24.2559 2.47751 24.0981 2.47751 23.9336V22.7121C2.47783 22.6305 2.46185 22.5497 2.43051 22.4743C2.39916 22.3989 2.35306 22.3304 2.29487 22.2728C2.23668 22.2151 2.16754 22.1694 2.09144 22.1384C2.01535 22.1073 1.93381 22.0915 1.85151 22.0918Z" fill="#1F1801"/>
<path d="M1.85151 26.928H0.623596C0.541503 26.928 0.460216 26.944 0.384401 26.9752C0.308586 27.0064 0.239734 27.0522 0.181797 27.1098C0.123859 27.1674 0.0779762 27.2358 0.0467798 27.3111C0.0155835 27.3863 -0.000312316 27.4669 4.64842e-06 27.5483V28.7698C3.42351e-06 28.9339 0.0656251 29.0913 0.182502 29.2076C0.299379 29.3238 0.457989 29.3894 0.623596 29.3901H1.85151C2.01754 29.3901 2.17676 29.3247 2.29416 29.2084C2.41156 29.0921 2.47751 28.9343 2.47751 28.7698V27.5483C2.47783 27.4667 2.46185 27.3859 2.43051 27.3105C2.39916 27.2351 2.35306 27.1666 2.29487 27.109C2.23668 27.0513 2.16754 27.0056 2.09144 26.9746C2.01535 26.9435 1.93381 26.9277 1.85151 26.928Z" fill="#1F1801"/>
<path d="M7.96962 17.8836V19.1051C7.96962 19.4487 8.37652 19.7278 8.87491 19.7278H23.8988C24.3996 19.7278 24.8041 19.4487 24.8041 19.1051V17.8836C24.8041 17.5424 24.3996 17.2633 23.8988 17.2633H8.87491C8.37652 17.2633 7.96962 17.5424 7.96962 17.8836Z" fill="#1F1801"/>
<path d="M7.96962 22.7121V23.9336C7.96962 24.2748 8.37652 24.5539 8.87491 24.5539H23.8988C24.3996 24.5539 24.8041 24.2748 24.8041 23.9336V22.7121C24.8041 22.3685 24.3996 22.0918 23.8988 22.0918H8.87491C8.37652 22.0918 7.96962 22.3685 7.96962 22.7121Z" fill="#1F1801"/>
<path d="M7.96962 27.5483V28.7698C7.96962 29.1133 8.37652 29.3901 8.87491 29.3901H23.8988C24.3996 29.3901 24.8041 29.1133 24.8041 28.7698V27.5483C24.8041 27.2047 24.3996 26.928 23.8988 26.928H8.87491C8.37652 26.928 7.96962 27.2047 7.96962 27.5483Z" fill="#1F1801"/>
<path d="M28.7628 38H3.96367C2.92027 38 1.91961 37.5893 1.18181 36.8582C0.444015 36.1271 0.0295258 35.1356 0.0295258 34.1017V32.1597C0.0301628 31.9804 0.102485 31.8087 0.230649 31.6821C0.358814 31.5556 0.532372 31.4845 0.713306 31.4845H1.75583C1.93654 31.4845 2.10985 31.5557 2.23764 31.6823C2.36542 31.8089 2.43721 31.9806 2.43721 32.1597V34.1017C2.43721 34.5028 2.59803 34.8876 2.8843 35.1712C3.17057 35.4549 3.55883 35.6143 3.96367 35.6143H28.7628C29.1676 35.6143 29.5559 35.4549 29.8422 35.1712C30.1284 34.8876 30.2892 34.5028 30.2892 34.1017V12.7397C30.2889 12.4704 30.2163 12.2061 30.0788 11.9738C29.9412 11.7415 29.7438 11.5497 29.5067 11.418L17.1192 4.56377C16.8935 4.43947 16.6395 4.37424 16.3813 4.37424C16.123 4.37424 15.8691 4.43947 15.6433 4.56377L3.23896 11.2773C2.99861 11.4074 2.79802 11.5992 2.65823 11.8326C2.51843 12.066 2.44459 12.3323 2.44443 12.6037V14.6746C2.44443 14.8538 2.37272 15.0258 2.24501 15.1528C2.11729 15.2798 1.94399 15.3515 1.76305 15.3521H0.720532C0.539182 15.3521 0.365257 15.2807 0.237024 15.1537C0.10879 15.0266 0.0367485 14.8543 0.0367485 14.6746V12.6037C0.0370818 11.9038 0.227483 11.2168 0.587984 10.6149C0.948486 10.0129 1.46581 9.51821 2.08569 9.18257L14.4901 2.48101C15.0731 2.16267 15.7286 1.99712 16.3943 2.00004C17.06 2.00296 17.714 2.17426 18.2942 2.49771L30.6817 9.35196C31.2892 9.68999 31.7954 10.1817 32.1486 10.7768C32.5018 11.372 32.6893 12.0493 32.6921 12.7397V34.0969C32.6921 35.1308 32.2776 36.1224 31.5398 36.8534C30.802 37.5845 29.8014 37.9952 28.758 37.9952" fill="#1F1801"/>
</svg>
