<svg width="24" height="24" viewBox="0 0 24 24" fill="none" xmlns="http://www.w3.org/2000/svg">
<path d="M12 0C18.6274 0 24 5.37258 24 12C24 18.6274 18.6274 24 12 24C5.37258 24 0 18.6274 0 12C0 5.37258 5.37258 0 12 0ZM11.999 5.60156C10.262 5.60157 10.0438 5.60957 9.36133 5.64062C8.67999 5.67183 8.21455 5.77923 7.80762 5.9375C7.38678 6.10096 7.0295 6.31997 6.67383 6.67578C6.31798 7.03143 6.09951 7.38887 5.93555 7.80957C5.77696 8.21653 5.66837 8.68152 5.6377 9.3623C5.60716 10.045 5.59961 10.2638 5.59961 12.002C5.59961 13.7396 5.60775 13.9572 5.63867 14.6396C5.67001 15.321 5.77741 15.7864 5.93555 16.1934C6.09915 16.6143 6.31797 16.9714 6.67383 17.3271C7.02926 17.683 7.38622 17.902 7.80664 18.0654C8.21377 18.2237 8.67934 18.3321 9.36035 18.3633C10.043 18.3943 10.2614 18.4014 11.999 18.4014C13.7372 18.4014 13.9551 18.3943 14.6377 18.3633C15.319 18.3321 15.7852 18.2237 16.1924 18.0654C16.613 17.902 16.9697 17.683 17.3252 17.3271C17.6812 16.9714 17.8995 16.6141 18.0635 16.1934C18.2208 15.7863 18.3293 15.3207 18.3613 14.6396C18.392 13.9574 18.3994 13.7394 18.3994 12.002C18.3994 10.2638 18.392 10.045 18.3613 9.3623C18.3293 8.68125 18.2207 8.2164 18.0635 7.80957C17.8995 7.38873 17.6811 7.03144 17.3252 6.67578C16.9692 6.31978 16.6127 6.10083 16.1914 5.9375C15.7834 5.77927 15.318 5.67182 14.6367 5.64062C13.9543 5.60957 13.7368 5.60156 11.999 5.60156Z" fill="white"/>
<path d="M11.4268 6.75195C11.5971 6.75169 11.7875 6.75195 12.001 6.75195C13.7095 6.75195 13.9122 6.75742 14.5869 6.78809C15.2108 6.81663 15.5498 6.92119 15.7754 7.00879C16.0739 7.12477 16.2869 7.26337 16.5107 7.4873C16.7347 7.7113 16.873 7.92497 16.9893 8.22363C17.0768 8.44893 17.1815 8.78741 17.21 9.41113C17.2406 10.0858 17.2471 10.2891 17.2471 11.9971C17.2471 13.7047 17.2406 13.9075 17.21 14.582C17.1814 15.206 17.0769 15.5452 16.9893 15.7705C16.8733 16.069 16.7347 16.2821 16.5107 16.5059C16.2868 16.7297 16.074 16.8684 15.7754 16.9844C15.5501 17.0724 15.2109 17.1765 14.5869 17.2051C13.9123 17.2357 13.7095 17.2422 12.001 17.2422C10.292 17.2422 10.0887 17.2357 9.41406 17.2051C8.7903 17.1763 8.45128 17.072 8.22559 16.9844C7.92706 16.8684 7.71417 16.7288 7.49023 16.5049C7.2663 16.2809 7.12699 16.0683 7.01074 15.7695C6.92318 15.5442 6.81943 15.2056 6.79102 14.582C6.76035 13.9074 6.75391 13.7042 6.75391 11.9951C6.75391 10.2864 6.76036 10.0846 6.79102 9.41016C6.81954 8.78632 6.92316 8.44728 7.01074 8.22168C7.12674 7.92301 7.26623 7.70935 7.49023 7.48535C7.71404 7.2616 7.92726 7.12303 8.22559 7.00684C8.45114 6.91885 8.79032 6.81483 9.41406 6.78613C10.0045 6.75947 10.2339 6.75133 11.4268 6.75V6.75195ZM12 8.71094C10.1852 8.71124 8.71387 10.1832 8.71387 11.998C8.71409 13.8129 10.186 15.2832 12.001 15.2832C13.8157 15.283 15.2869 13.8128 15.2871 11.998C15.2871 10.183 13.8151 8.71094 12 8.71094ZM15.416 7.8125C14.9924 7.81273 14.6487 8.15628 14.6484 8.58008C14.6484 9.00394 14.9922 9.3484 15.416 9.34863C15.84 9.34863 16.1846 9.00408 16.1846 8.58008C16.1843 8.15627 15.8399 7.8125 15.416 7.8125Z" fill="white"/>
<path d="M12.0005 9.86719C13.1787 9.86719 14.1339 10.8223 14.1339 12.0005C14.1339 13.1787 13.1787 14.1339 12.0005 14.1339C10.8223 14.1339 9.86719 13.1787 9.86719 12.0005C9.86719 10.8223 10.8223 9.86719 12.0005 9.86719Z" fill="white"/>
</svg>
