<svg width="24" height="24" viewBox="0 0 24 24" fill="none" xmlns="http://www.w3.org/2000/svg">
<path d="M12 0C18.6274 0 24 5.37258 24 12C24 18.6274 18.6274 24 12 24C5.37258 24 0 18.6274 0 12C0 5.37258 5.37258 0 12 0ZM15.1562 9.74609C13.7125 9.74614 13.066 10.5394 12.7051 11.0957V9.93848H9.98535C10.0212 10.7068 9.98535 18.1094 9.98535 18.1094H12.7051V13.5459C12.7051 13.3017 12.723 13.0577 12.7949 12.8828C12.9915 12.3951 13.4393 11.8906 14.1904 11.8906C15.1746 11.8908 15.5683 12.6395 15.5684 13.7373V18.1084H18.2871V13.4238C18.2871 10.9141 16.9458 9.74609 15.1562 9.74609ZM5.76074 18.1084H8.48047V9.9375H5.76074V18.1084ZM7.1377 6C6.20771 6.00019 5.59972 6.61022 5.59961 7.41113C5.59961 8.1956 6.18971 8.82311 7.10254 8.82324H7.12012C8.06835 8.82324 8.65918 8.19569 8.65918 7.41113C8.64143 6.61009 8.06792 6 7.1377 6Z" fill="white"/>
</svg>
