<svg width="206" height="338" viewBox="0 0 206 338" fill="none" xmlns="http://www.w3.org/2000/svg">
<path d="M186.369 5.39956C193.085 1.56063 196.443 -0.358843 199.192 0.0552936C201.2 0.357807 203.017 1.41247 204.276 3.00548C206 5.18629 206 9.05419 206 16.79L206.001 272.69C206.001 275.577 206.001 277.02 205.552 278.302C205.218 279.258 204.705 280.142 204.042 280.906C203.151 281.932 201.898 282.648 199.392 284.081L109.512 335.457C107.041 336.869 105.806 337.575 104.488 337.824C103.505 338.01 102.497 338.01 101.514 337.824C100.196 337.575 98.9606 336.869 96.4901 335.457L6.61008 284.081C4.1042 282.648 2.85126 281.932 1.96039 280.906C1.29655 280.142 0.78389 279.258 0.4496 278.302C0.000961304 277.02 0.000961304 275.577 0.000946045 272.69L6.10352e-05 16.7901C3.05176e-05 9.0543 3.05176e-05 5.18639 1.72362 3.00556C2.98264 1.41254 4.80031 0.35787 6.80812 0.0553513C9.55681 -0.358793 12.9148 1.56069 19.6309 5.39965L96.4891 49.3323C98.9596 50.7444 100.195 51.4505 101.513 51.6999C102.496 51.8857 103.504 51.8857 104.487 51.6999C105.805 51.4505 107.04 50.7444 109.511 49.3323L186.369 5.39956Z" fill="#1F1801"/>
</svg>
