<svg width="468" height="206" viewBox="0 0 468 206" fill="none" xmlns="http://www.w3.org/2000/svg">
<path d="M0 13.12C0 8.3373 0 5.94595 0.989547 4.14597C1.72089 2.81566 2.81566 1.72089 4.14597 0.989547C5.94595 0 8.3373 0 13.12 0H409.353C412.444 0 413.989 0 415.341 0.504044C416.348 0.879318 417.268 1.45346 418.048 2.19223C419.096 3.1845 419.775 4.57216 421.135 7.34749L465.172 97.2275C466.252 99.4325 466.792 100.535 466.984 101.694C467.127 102.559 467.127 103.441 466.984 104.306C466.792 105.465 466.252 106.568 465.172 108.773L421.135 198.653C419.775 201.428 419.096 202.815 418.048 203.808C417.268 204.547 416.348 205.121 415.341 205.496C413.989 206 412.444 206 409.353 206H13.12C8.3373 206 5.94595 206 4.14597 205.01C2.81566 204.279 1.72089 203.184 0.989547 201.854C0 200.054 0 197.663 0 192.88V103V13.12Z" fill="#1F1801"/>
</svg>
