<svg width="462" height="206" viewBox="0 0 462 206" fill="none" xmlns="http://www.w3.org/2000/svg">
<path d="M4.36208 18.8825C1.17342 12.3605 -0.420905 9.09943 0.0957117 6.46212C0.473709 4.53246 1.54914 2.8096 3.11669 1.62247C5.25908 0 8.889 0 16.1488 0H403.584C406.677 0 408.224 0 409.577 0.5048C410.584 0.880632 411.505 1.45561 412.285 2.19539C413.333 3.18903 414.012 4.5785 415.371 7.35744L459.313 97.2374C460.389 99.4388 460.927 100.539 461.118 101.696C461.261 102.56 461.261 103.44 461.118 104.304C460.927 105.46 460.389 106.561 459.313 108.763L415.371 198.643C414.012 201.421 413.333 202.811 412.285 203.805C411.505 204.544 410.584 205.119 409.577 205.495C408.224 206 406.677 206 403.584 206H16.1488C8.88899 206 5.25908 206 3.11669 204.378C1.54914 203.19 0.473709 201.468 0.0957117 199.538C-0.420905 196.901 1.17343 193.64 4.36209 187.117L42.6699 108.763C43.7462 106.561 44.2843 105.46 44.4754 104.304C44.618 103.44 44.618 102.56 44.4754 101.696C44.2843 100.539 43.7462 99.4388 42.6699 97.2374L4.36208 18.8825Z" fill="#1F1801"/>
</svg>
