<svg width="206" height="344" viewBox="0 0 206 344" fill="none" xmlns="http://www.w3.org/2000/svg">
<path d="M192.88 0C197.663 0 200.054 0 201.854 0.989547C203.184 1.72089 204.279 2.81566 205.01 4.14597C206 5.94595 206 8.3373 206 13.12V278.512C206 281.398 206 282.841 205.551 284.124C205.217 285.08 204.704 285.963 204.041 286.728C203.15 287.754 201.897 288.47 199.391 289.902L109.511 341.278C107.04 342.69 105.805 343.397 104.487 343.646C103.504 343.832 102.496 343.832 101.513 343.646C100.195 343.397 98.9596 342.69 96.4891 341.278L6.60913 289.902C4.10324 288.47 2.8503 287.754 1.95941 286.728C1.29559 285.963 0.782928 285.08 0.448639 284.124C0 282.841 0 281.398 0 278.512V13.12C0 8.33729 0 5.94595 0.989548 4.14597C1.72089 2.81566 2.81566 1.72089 4.14597 0.989547C5.94595 0 8.3373 0 13.12 0H103H192.88Z" fill="#1F1801"/>
</svg>
