<svg width="205" height="339" viewBox="0 0 205 339" fill="none" xmlns="http://www.w3.org/2000/svg">
<path d="M185.345 5.43511C192.067 1.57398 195.428 -0.356594 198.18 0.0540671C200.191 0.354025 202.011 1.40794 203.273 3.00175C205 5.18376 205 9.05981 205 16.8119V325.526C205 330.308 205 332.7 204.01 334.5C203.279 335.83 202.184 336.925 200.854 337.656C199.054 338.646 196.663 338.646 191.88 338.646H102.5H13.1198C8.33711 338.646 5.94577 338.646 4.14578 337.656C2.81548 336.925 1.7207 335.83 0.989365 334.5C-0.000183105 332.7 -0.000183105 330.308 -0.000183105 325.526V16.8119C-0.000183105 9.0598 -0.000183105 5.18376 1.72675 3.00174C2.98813 1.40794 4.8089 0.354025 6.81921 0.0540671C9.57146 -0.356594 12.9325 1.57397 19.6546 5.43511L95.965 49.2674C98.444 50.6913 99.6834 51.4033 101.007 51.6547C101.993 51.842 103.006 51.842 103.993 51.6547C105.316 51.4033 106.556 50.6913 109.035 49.2675L185.345 5.43511Z" fill="#1F1801"/>
</svg>
