<svg width="463" height="205" viewBox="0 0 463 205" fill="none" xmlns="http://www.w3.org/2000/svg">
<path d="M4.39139 18.9052C1.18422 12.3771 -0.419363 9.11306 0.094327 6.47239C0.470166 4.54036 1.54505 2.81469 3.11338 1.62545C5.25696 0 8.89365 0 16.167 0H448.984C453.766 0 456.158 0 457.958 0.989547C459.288 1.72089 460.383 2.81566 461.114 4.14597C462.104 5.94595 462.104 8.3373 462.104 13.12V102.5V191.88C462.104 196.663 462.104 199.054 461.114 200.854C460.383 202.184 459.288 203.279 457.958 204.01C456.158 205 453.766 205 448.984 205H16.167C8.89364 205 5.25696 205 3.11338 203.375C1.54505 202.185 0.470166 200.46 0.094327 198.528C-0.419363 195.887 1.18422 192.623 4.39139 186.095L42.6182 108.285C43.7037 106.076 44.2465 104.971 44.4392 103.809C44.583 102.942 44.583 102.058 44.4392 101.191C44.2465 100.029 43.7037 98.9244 42.6182 96.7148L4.39139 18.9052Z" fill="#1F1801"/>
</svg>
