<svg width="154" height="37" viewBox="0 0 154 37" fill="none" xmlns="http://www.w3.org/2000/svg">
<path d="M43.0762 28.5522V14.9922H45.2132V20.2548C45.857 19.4395 46.9266 19.0074 48.2163 19.0074C50.4074 19.0074 52.1207 20.6155 52.1207 22.8942V28.5522H50.0024V23.2366C50.0024 21.8996 49.0263 20.9416 47.7553 20.9416C46.6691 20.9416 45.2132 21.7365 45.2132 22.5722V28.5563L43.0762 28.5522Z" fill="#17365C"/>
<path d="M59.2952 19.0078C60.6094 19.0078 61.8698 19.5202 62.7991 20.4322C63.7284 21.3442 64.2505 22.5811 64.2505 23.8709C64.2505 25.1607 63.7284 26.3976 62.7991 27.3096C61.8698 28.2216 60.6094 28.734 59.2952 28.734C57.9809 28.734 56.7205 28.2216 55.7912 27.3096C54.8619 26.3976 54.3398 25.1607 54.3398 23.8709C54.3398 22.5811 54.8619 21.3442 55.7912 20.4322C56.7205 19.5202 57.9809 19.0078 59.2952 19.0078ZM59.2952 26.7101C59.8665 26.7157 60.4268 26.5547 60.9048 26.2475C61.3828 25.9402 61.7571 25.5005 61.9801 24.9842C62.2031 24.4679 62.2649 23.8983 62.1576 23.3475C62.0502 22.7966 61.7786 22.2895 61.3772 21.8904C60.9758 21.4913 60.4627 21.2182 59.9029 21.1057C59.343 20.9932 58.7618 21.0464 58.2329 21.2586C57.7039 21.4708 57.2511 21.8323 56.9318 22.2974C56.6125 22.7625 56.4412 23.3101 56.4395 23.8709C56.4389 24.6178 56.7384 25.3347 57.273 25.8662C57.8076 26.3978 58.5342 26.701 59.2952 26.7101Z" fill="#17365C"/>
<path d="M75.7821 19.207V28.4644L74.8787 28.6458C74.4734 28.2975 74.1521 27.8652 73.9379 27.3801C73.3148 28.2117 72.1518 28.7722 70.6149 28.7722C68.4031 28.7722 66.4883 27.3618 66.4883 24.8854V19.207H68.6212V24.5409C68.6178 24.8464 68.6769 25.1494 68.795 25.4321C68.9132 25.7147 69.0879 25.9712 69.3089 26.1863C69.5298 26.4015 69.7926 26.5709 70.0815 26.6846C70.3704 26.7983 70.6796 26.8539 70.9908 26.8482C72.0292 26.8482 73.645 26.0166 73.645 25.238V19.207H75.7821Z" fill="#17365C"/>
<path d="M77.9488 19.207H85.7971L86.092 19.9652L81.2655 26.6199H86.2582L86.0007 28.5541H78.2811L77.8574 27.7042L82.6653 21.1779H77.9488V19.207Z" fill="#17365C"/>
<path d="M96.5568 23.1657C96.5568 24.305 95.7656 24.5211 94.8621 24.5211H89.5372C89.606 25.164 89.9195 25.7577 90.415 26.1835C90.9106 26.6094 91.5516 26.836 92.2101 26.8181C93.3336 26.8181 94.1623 26.3473 94.6233 25.6421L96.2245 26.5287C95.3232 28.0288 94.1062 28.7157 92.0979 28.7157C89.5372 28.7157 87.4375 26.6 87.4375 23.7629C87.4375 21.0501 89.3544 19.0078 92.0979 19.0078C94.5901 19.0078 96.5568 20.6526 96.5568 23.1657ZM89.5746 22.9497H94.6233C94.5483 22.3639 94.2539 21.8265 93.7975 21.4418C93.3412 21.0572 92.7553 20.8529 92.154 20.8687C91.5415 20.8554 90.9444 21.058 90.4711 21.4398C89.9978 21.8216 89.6798 22.3573 89.5746 22.9497Z" fill="#17365C"/>
<path d="M103.075 26.8178C104.309 26.8178 105.451 25.9312 105.671 24.9182L107.644 25.3258C107.164 27.3864 105.152 28.7418 102.982 28.7418C100.145 28.7418 98.1924 26.6812 98.1924 23.9501C98.1924 20.9315 99.9431 19.0156 103.177 19.0156C105.59 19.0156 107.247 20.4974 107.58 22.2523L105.627 22.9575C105.37 21.6918 104.381 20.9499 102.928 20.9499C101.231 20.9499 100.311 22.1728 100.311 23.8033C100.311 25.4339 101.416 26.8239 103.056 26.8239" fill="#17365C"/>
<path d="M109.828 28.5522V14.9922H111.965V20.2548C112.609 19.4395 113.679 19.0074 114.968 19.0074C117.159 19.0074 118.873 20.6155 118.873 22.8942V28.5522H116.754V23.2366C116.754 21.8996 115.778 20.9416 114.507 20.9416C113.421 20.9416 111.965 21.7365 111.965 22.5722V28.5563L109.828 28.5522Z" fill="#17365C"/>
<path d="M130.221 23.1659C130.221 24.3053 129.428 24.5213 128.526 24.5213H123.201C123.27 25.1638 123.583 25.7573 124.078 26.1831C124.574 26.6089 125.214 26.8357 125.872 26.8183C126.996 26.8183 127.826 26.3475 128.285 25.6423L129.889 26.5289C128.985 28.029 127.77 28.7159 125.762 28.7159C123.201 28.7159 121.102 26.6003 121.102 23.7631C121.102 21.0503 123.016 19.008 125.762 19.008C128.254 19.008 130.221 20.6528 130.221 23.1659ZM123.241 22.9499H128.287C128.213 22.3641 127.92 21.8264 127.463 21.4417C127.007 21.0569 126.421 20.8527 125.82 20.8689C125.208 20.8556 124.611 21.0582 124.137 21.44C123.664 21.8219 123.346 22.3575 123.241 22.9499Z" fill="#17365C"/>
<path d="M136.74 26.8178C137.976 26.8178 139.118 25.9312 139.338 24.9182L141.309 25.3258C140.831 27.3864 138.817 28.7418 136.649 28.7418C133.812 28.7418 131.859 26.6812 131.859 23.9501C131.859 20.9315 133.608 19.0156 136.844 19.0156C139.257 19.0156 140.914 20.4974 141.247 22.2523L139.292 22.9575C139.035 21.6918 138.059 20.9499 136.603 20.9499C134.908 20.9499 133.988 22.1728 133.988 23.8033C133.988 25.4339 135.093 26.8239 136.732 26.8239" fill="#17365C"/>
<path d="M143.492 28.5522V14.9922H145.702V22.9839L149.793 19.2051H152.888L148.373 23.2366L153.532 28.5522H150.641L146.863 24.592L145.702 25.5337V28.5522H143.492Z" fill="#17365C"/>
<path d="M1.99107 15.8711H0.759975C0.677669 15.8711 0.596172 15.887 0.520161 15.918C0.44415 15.949 0.37512 15.9944 0.317033 16.0516C0.258946 16.1089 0.212944 16.1768 0.181666 16.2515C0.150389 16.3262 0.134453 16.4063 0.13477 16.487V17.6976C0.134453 17.7784 0.150389 17.8584 0.181666 17.9331C0.212944 18.0078 0.258946 18.0758 0.317033 18.133C0.37512 18.1902 0.44415 18.2356 0.520161 18.2666C0.596172 18.2976 0.677669 18.3135 0.759975 18.3135H1.99107C2.07358 18.3138 2.15533 18.2981 2.23162 18.2673C2.30791 18.2364 2.37723 18.1911 2.43557 18.1338C2.49391 18.0766 2.54013 18.0085 2.57156 17.9337C2.60299 17.8588 2.619 17.7786 2.61868 17.6976V16.487C2.619 16.4061 2.60299 16.3258 2.57156 16.251C2.54013 16.1761 2.49391 16.1081 2.43557 16.0508C2.37723 15.9935 2.30791 15.9482 2.23162 15.9173C2.15533 15.8865 2.07358 15.8708 1.99107 15.8711Z" fill="#85C9BB"/>
<path d="M1.99107 20.6602H0.759975C0.677669 20.6602 0.596172 20.6761 0.520161 20.7071C0.44415 20.7381 0.37512 20.7835 0.317033 20.8407C0.258946 20.8979 0.212944 20.9659 0.181666 21.0406C0.150389 21.1153 0.134453 21.1953 0.13477 21.2761V22.489C0.134769 22.652 0.200561 22.8083 0.31774 22.9237C0.434919 23.0392 0.59394 23.1043 0.759975 23.105H1.99107C2.15752 23.105 2.31716 23.0401 2.43486 22.9246C2.55256 22.809 2.61868 22.6524 2.61868 22.489V21.2761C2.619 21.1951 2.60299 21.1149 2.57156 21.04C2.54013 20.9651 2.49391 20.8971 2.43557 20.8399C2.37723 20.7826 2.30791 20.7372 2.23162 20.7064C2.15533 20.6756 2.07358 20.6598 1.99107 20.6602Z" fill="#85C9BB"/>
<path d="M1.99107 25.457H0.759975C0.677669 25.457 0.596172 25.473 0.520161 25.504C0.44415 25.535 0.37512 25.5804 0.317033 25.6376C0.258946 25.6948 0.212944 25.7627 0.181666 25.8374C0.150389 25.9122 0.134453 25.9922 0.13477 26.073V27.2859C0.134769 27.4488 0.200561 27.6052 0.31774 27.7206C0.434919 27.836 0.59394 27.9012 0.759975 27.9018H1.99107C2.15752 27.9018 2.31716 27.8369 2.43486 27.7214C2.55256 27.6059 2.61868 27.4493 2.61868 27.2859V26.073C2.619 25.992 2.60299 25.9118 2.57156 25.8369C2.54013 25.762 2.49391 25.694 2.43557 25.6367C2.37723 25.5795 2.30791 25.5341 2.23162 25.5033C2.15533 25.4724 2.07358 25.4567 1.99107 25.457Z" fill="#85C9BB"/>
<path d="M8.125 16.4753V17.6882C8.125 18.0294 8.53295 18.3065 9.03263 18.3065H24.0954C24.5975 18.3065 25.0031 18.0294 25.0031 17.6882V16.4753C25.0031 16.1365 24.5975 15.8594 24.0954 15.8594H9.03263C8.53295 15.8594 8.125 16.1365 8.125 16.4753Z" fill="#85C9BB"/>
<path d="M8.125 21.2761V22.489C8.125 22.8278 8.53295 23.105 9.03263 23.105H24.0954C24.5975 23.105 25.0031 22.8278 25.0031 22.489V21.2761C25.0031 20.935 24.5975 20.6602 24.0954 20.6602H9.03263C8.53295 20.6602 8.125 20.935 8.125 21.2761Z" fill="#85C9BB"/>
<path d="M8.125 26.073V27.2859C8.125 27.627 8.53295 27.9018 9.03263 27.9018H24.0954C24.5975 27.9018 25.0031 27.627 25.0031 27.2859V26.073C25.0031 25.7318 24.5975 25.457 24.0954 25.457H9.03263C8.53295 25.457 8.125 25.7318 8.125 26.073Z" fill="#85C9BB"/>
<path d="M28.9685 36.4542H4.10525C3.05914 36.4542 2.05589 36.0464 1.31619 35.3205C0.576481 34.5945 0.160919 33.6099 0.160919 32.5833V30.6549C0.161558 30.4769 0.234067 30.3064 0.362563 30.1807C0.49106 30.0551 0.665067 29.9845 0.846469 29.9845H1.89169C2.07287 29.9845 2.24663 30.0551 2.37474 30.1809C2.50286 30.3066 2.57483 30.4771 2.57483 30.6549V32.5833C2.57483 32.9816 2.73607 33.3637 3.02308 33.6453C3.31009 33.927 3.69935 34.0852 4.10525 34.0852H28.9685C29.3744 34.0852 29.7637 33.927 30.0507 33.6453C30.3377 33.3637 30.4989 32.9816 30.4989 32.5833V11.3713C30.4986 11.1039 30.4258 10.8414 30.2879 10.6108C30.15 10.3801 29.9521 10.1897 29.7144 10.0589L17.2948 3.25279C17.0685 3.12937 16.8139 3.0646 16.555 3.0646C16.2961 3.0646 16.0414 3.12937 15.8151 3.25279L3.37866 9.91914C3.13769 10.0484 2.93658 10.2388 2.79642 10.4706C2.65627 10.7023 2.58223 10.9668 2.58207 11.2363V13.2926C2.58207 13.4706 2.51017 13.6414 2.38213 13.7675C2.25409 13.8936 2.08033 13.9648 1.89893 13.9654H0.853714C0.671894 13.9654 0.497519 13.8945 0.368954 13.7683C0.240388 13.6421 0.168161 13.471 0.168161 13.2926V11.2363C0.168495 10.5413 0.359389 9.85912 0.720823 9.26141C1.08226 8.6637 1.60092 8.17244 2.2224 7.83916L14.6589 1.18466C15.2434 0.868556 15.9006 0.704167 16.568 0.707069C17.2355 0.709971 17.8911 0.88007 18.4728 1.20125L30.8924 8.00736C31.5015 8.34302 32.009 8.83124 32.3631 9.42221C32.7172 10.0132 32.9052 10.6858 32.908 11.3713V32.5786C32.908 33.6052 32.4924 34.5898 31.7527 35.3157C31.013 36.0417 30.0098 36.4495 28.9637 36.4495" fill="#17365C"/>
</svg>
