<svg width="25" height="40" viewBox="0 0 25 40" fill="none" xmlns="http://www.w3.org/2000/svg">
<path d="M12.2079 20L2.78943 29.1888C2.04535 29.9148 1.62726 30.8793 1.62726 31.6129L2.92693 32.4573H15.2669L12.2079 20Z" fill="#E1F5FB"/>
<path d="M22.7885 37.4194V31.926C22.7886 31.4177 22.6859 30.9143 22.4865 30.4446C22.2871 29.975 21.9948 29.5483 21.6264 29.1888L12.2079 20L12.2079 37.4194H22.7885Z" fill="#CCEFFA"/>
<path d="M2.37903 4.35789L1.62726 5.16125V8.07398C1.62725 8.58233 1.72988 9.0857 1.92929 9.55535C2.12869 10.025 2.42097 10.4517 2.78943 10.8112L4.93376 12.9032L16.3452 14.2673L19.2846 4.35789H2.37903Z" fill="#E1F5FB"/>
<path d="M1.62726 2.58063V5.16125H14.1918C15.6526 5.16125 16.8369 6.31664 16.8369 7.74187V8.07398C16.8369 9.10062 16.6279 10.0852 16.2558 10.8112L15.0724 13.1205L19.482 12.9033L21.6264 10.8113C22.3705 10.0853 22.7885 9.10066 22.7885 8.07398V2.58063H1.62726Z" fill="#CCEFFA"/>
<path d="M4.93376 12.9032L10.9656 18.788C11.1498 18.9677 11.2959 19.1811 11.3956 19.4159C11.4953 19.6507 11.5466 19.9024 11.5466 20.1566L15.8583 13.5887L15.1838 12.9033L4.93376 12.9032ZM11.5466 28.2305C11.5466 28.7438 11.3376 29.2362 10.9656 29.5991L9.48252 31.046C9.11044 31.409 8.60581 31.6129 8.07963 31.6129H1.62726V37.4194H14.2581V32.118L11.5466 28.2305Z" fill="#FFD030"/>
<path d="M22.7885 31.6129H16.3361C15.81 31.6129 15.3054 31.409 14.9334 31.046L13.4503 29.5991C13.0782 29.2361 12.8692 28.7437 12.8692 28.2304V20.1565C12.8692 19.6432 13.0782 19.1509 13.4502 18.7879L19.482 12.9033H15.1838L12.0736 18.1866C11.7283 18.7732 11.5466 19.4379 11.5466 20.1144V28.3066C11.5466 29.2081 11.7617 30.0971 12.1749 30.9034L12.9021 32.3223C13.3153 33.1286 13.5304 34.0176 13.5304 34.9191V37.4193L22.7885 37.4194L22.7885 31.6129Z" fill="#FFD05B"/>
<path d="M19.4821 0H1.62726C0.896785 0 0.304688 0.577734 0.304688 1.29031V2.58063L1.62726 3.25563H20.8047V1.29031C20.8047 0.577734 20.2125 0 19.4821 0Z" fill="#F4AA73"/>
<path d="M22.7885 0H19.4821V1.29031C19.4821 2.00289 18.8899 2.58063 18.1595 2.58063L0.304688 2.58063C0.304688 3.2932 0.896865 3.87094 1.62726 3.87094H22.7885C23.5189 3.87094 24.1111 3.2932 24.1111 2.58063V1.29031C24.1111 0.577656 23.519 0 22.7885 0Z" fill="#E29A6C"/>
<path d="M19.4821 36.1291H1.62726C0.896785 36.1291 0.304688 36.7068 0.304688 37.4194V38.7097L1.62726 39.3847H20.8047V37.4193C20.8047 36.7067 20.2125 36.1291 19.4821 36.1291Z" fill="#F4AA73"/>
<path d="M22.7885 36.1291H19.4821V37.4194C19.4821 38.132 18.8899 38.7097 18.1595 38.7097H0.304688C0.304688 39.4223 0.896865 40 1.62726 40H22.7885C23.5189 40 24.1111 39.4223 24.1111 38.7097V37.4194C24.1111 36.7067 23.519 36.1291 22.7885 36.1291Z" fill="#E29A6C"/>
</svg>
