<svg width="238" height="263" viewBox="0 0 238 263" fill="none" xmlns="http://www.w3.org/2000/svg">
<path d="M5.43555 245.735V230.029L5.49453 88.6106V71.862C5.49581 69.6669 6.09887 67.5127 7.24044 65.6251C8.38202 63.7375 10.0201 62.1861 11.9828 61.1336L113.279 6.83556C115.122 5.83027 117.196 5.30273 119.305 5.30273C121.414 5.30273 123.488 5.83027 125.331 6.83556L226.49 62.272C228.426 63.3371 230.038 64.8885 231.161 66.7672C232.284 68.6458 232.877 70.7838 232.88 72.9618V245.735C232.88 248.98 231.567 252.091 229.229 254.386C226.891 256.68 223.721 257.969 220.415 257.969H17.9009C14.5949 257.969 11.4243 256.68 9.08659 254.386C6.74887 252.091 5.43555 248.98 5.43555 245.735Z" stroke="white" stroke-width="10"/>
</svg>
