<svg width="151" height="150" viewBox="0 0 151 150" fill="none" xmlns="http://www.w3.org/2000/svg">
<path d="M145.669 71.242C147.726 73.1141 147.726 76.4699 145.669 78.342C138.947 84.4589 137.554 90.6813 141.26 98.6222C142.477 101.231 141.11 104.465 138.387 105.398C130.333 108.158 126.927 113.143 127.392 121.561C127.552 124.458 125.044 126.966 122.147 126.806C113.729 126.341 108.743 129.747 105.984 137.801C105.051 140.524 101.817 141.891 99.2082 140.674C91.2673 136.968 85.0448 138.361 78.9279 145.083C77.0558 147.14 73.7 147.14 71.8279 145.083C65.711 138.361 59.4886 136.968 51.5477 140.674C48.9392 141.891 45.7049 140.524 44.7719 137.801C42.0124 129.747 37.0266 126.341 28.609 126.806C25.7117 126.966 23.2038 124.458 23.364 121.561C23.8292 113.143 20.4233 108.158 12.3689 105.398C9.64563 104.465 8.27868 101.231 9.49604 98.6222C13.2019 90.6813 11.8086 84.4589 5.08698 78.342C3.02984 76.4699 3.02985 73.1141 5.08695 71.242C11.8085 65.1249 13.201 58.9022 9.49512 50.9609C8.27795 48.3526 9.64467 45.1188 12.3676 44.1859C20.4229 41.426 23.8292 36.4407 23.364 28.023C23.2038 25.1257 25.7117 22.6178 28.609 22.778C37.0266 23.2432 42.0124 19.8373 44.7719 11.7829C45.7049 9.05964 48.9392 7.69269 51.5477 8.91005C59.4886 12.6159 65.711 11.2226 71.8279 4.50104C73.7 2.44391 77.0559 2.44391 78.928 4.50101C85.0451 11.2226 91.2677 12.615 99.209 8.90914C101.817 7.69197 105.051 9.05869 105.984 11.7816C108.744 19.8369 113.729 23.2432 122.147 22.778C125.044 22.6178 127.552 25.1257 127.392 28.023C126.927 36.4406 130.333 41.4264 138.387 44.1859C141.11 45.1189 142.477 48.3532 141.26 50.9618C137.554 58.9027 138.947 65.1251 145.669 71.242Z" fill="#F7DE8C"/>
<path d="M40.5947 50C39.374 50 38.3901 49.6777 37.6431 49.0332C36.896 48.3838 36.5225 47.5024 36.5225 46.3892H38.8076C38.8076 46.8726 38.9785 47.2461 39.3203 47.5098C39.6621 47.7686 40.082 47.8979 40.5801 47.8979C41.0342 47.8979 41.4297 47.7856 41.7666 47.561C42.1035 47.3364 42.272 47.0361 42.272 46.6602C42.272 46.5283 42.2476 46.4087 42.1987 46.3013C42.1548 46.1938 42.0767 46.0986 41.9644 46.0156C41.8569 45.9326 41.752 45.8618 41.6494 45.8032C41.5518 45.7446 41.4053 45.686 41.21 45.6274C41.0146 45.5688 40.8535 45.5249 40.7266 45.4956C40.6045 45.4614 40.4189 45.415 40.1699 45.3564C39.291 45.1416 38.6562 44.939 38.2656 44.7485C37.3379 44.3042 36.8154 43.6206 36.6982 42.6978C36.6787 42.5513 36.6689 42.3999 36.6689 42.2437C36.6689 41.2476 37.0083 40.4761 37.687 39.9292C38.3706 39.3774 39.3008 39.1016 40.4775 39.1016C41.6787 39.1016 42.6089 39.4019 43.2681 40.0024C43.9321 40.5981 44.2642 41.4233 44.2642 42.478H42.0156C42.0156 42.0483 41.8618 41.7212 41.5542 41.4966C41.2515 41.2671 40.873 41.1523 40.4189 41.1523C40.0137 41.1523 39.6646 41.2378 39.3716 41.4087C39.0835 41.5796 38.9395 41.8262 38.9395 42.1484C38.9395 42.29 38.9761 42.4194 39.0493 42.5366C39.1274 42.6538 39.2178 42.749 39.3203 42.8223C39.4229 42.8955 39.5767 42.9712 39.7817 43.0493C39.9868 43.1226 40.1626 43.1787 40.3091 43.2178C40.4604 43.2568 40.6777 43.3105 40.9609 43.3789C41.2002 43.4375 41.3833 43.4839 41.5103 43.5181C41.6421 43.5522 41.8252 43.606 42.0596 43.6792C42.2939 43.7524 42.4795 43.8208 42.6162 43.8843C42.7529 43.9429 42.9214 44.0259 43.1216 44.1333C43.3218 44.2358 43.4805 44.3408 43.5977 44.4482C43.7197 44.5508 43.8491 44.6802 43.9858 44.8364C44.1274 44.9927 44.2349 45.1562 44.3081 45.3271C44.3813 45.498 44.4424 45.6958 44.4912 45.9204C44.5449 46.145 44.5718 46.3843 44.5718 46.6382C44.5718 47.1899 44.4668 47.6831 44.2568 48.1177C44.0469 48.5522 43.7588 48.9062 43.3926 49.1797C43.0312 49.4482 42.6113 49.6533 42.1328 49.7949C41.6592 49.9316 41.1465 50 40.5947 50ZM48.666 47.6855H52.6943V49.7949H46.3955V39.292H48.666V47.6855ZM58.8247 50.022C58.0337 50.022 57.2915 49.8828 56.5981 49.6045C55.9048 49.3213 55.3091 48.938 54.811 48.4546C54.3179 47.9712 53.9272 47.3901 53.6392 46.7114C53.356 46.0327 53.2144 45.3101 53.2144 44.5435C53.2144 43.7769 53.356 43.0542 53.6392 42.3755C53.9272 41.6968 54.3179 41.1157 54.811 40.6323C55.3091 40.1489 55.9048 39.7681 56.5981 39.4897C57.2915 39.2065 58.0337 39.0649 58.8247 39.0649C59.6108 39.0649 60.3481 39.2041 61.0366 39.4824C61.73 39.7607 62.3208 40.144 62.8091 40.6323C63.3022 41.1157 63.6904 41.6968 63.9736 42.3755C64.2568 43.0493 64.3984 43.772 64.3984 44.5435C64.3984 45.3149 64.2568 46.04 63.9736 46.7188C63.6904 47.3926 63.3022 47.9736 62.8091 48.4619C62.3208 48.9453 61.73 49.3262 61.0366 49.6045C60.3481 49.8828 59.6108 50.022 58.8247 50.022ZM56.4736 46.9238C57.1084 47.5635 57.8921 47.8833 58.8247 47.8833C59.7573 47.8833 60.5361 47.5659 61.1611 46.9312C61.7861 46.2915 62.0986 45.4956 62.0986 44.5435C62.0986 43.5913 61.7861 42.7979 61.1611 42.1631C60.5361 41.5283 59.7573 41.2109 58.8247 41.2109C57.8921 41.2109 57.1084 41.5308 56.4736 42.1704C55.8389 42.8101 55.5215 43.6011 55.5215 44.5435C55.5215 45.4858 55.8389 46.2793 56.4736 46.9238ZM73.085 39.292V41.4014H70.1626V49.7949H67.8921V41.4014H64.9771V39.292H73.085ZM77.9922 50C76.7715 50 75.7876 49.6777 75.0405 49.0332C74.2935 48.3838 73.9199 47.5024 73.9199 46.3892H76.2051C76.2051 46.8726 76.376 47.2461 76.7178 47.5098C77.0596 47.7686 77.4795 47.8979 77.9775 47.8979C78.4316 47.8979 78.8271 47.7856 79.1641 47.561C79.501 47.3364 79.6694 47.0361 79.6694 46.6602C79.6694 46.5283 79.645 46.4087 79.5962 46.3013C79.5522 46.1938 79.4741 46.0986 79.3618 46.0156C79.2544 45.9326 79.1494 45.8618 79.0469 45.8032C78.9492 45.7446 78.8027 45.686 78.6074 45.6274C78.4121 45.5688 78.251 45.5249 78.124 45.4956C78.002 45.4614 77.8164 45.415 77.5674 45.3564C76.6885 45.1416 76.0537 44.939 75.6631 44.7485C74.7354 44.3042 74.2129 43.6206 74.0957 42.6978C74.0762 42.5513 74.0664 42.3999 74.0664 42.2437C74.0664 41.2476 74.4058 40.4761 75.0845 39.9292C75.7681 39.3774 76.6982 39.1016 77.875 39.1016C79.0762 39.1016 80.0063 39.4019 80.6655 40.0024C81.3296 40.5981 81.6616 41.4233 81.6616 42.478H79.4131C79.4131 42.0483 79.2593 41.7212 78.9517 41.4966C78.6489 41.2671 78.2705 41.1523 77.8164 41.1523C77.4111 41.1523 77.062 41.2378 76.769 41.4087C76.481 41.5796 76.3369 41.8262 76.3369 42.1484C76.3369 42.29 76.3735 42.4194 76.4468 42.5366C76.5249 42.6538 76.6152 42.749 76.7178 42.8223C76.8203 42.8955 76.9741 42.9712 77.1792 43.0493C77.3843 43.1226 77.5601 43.1787 77.7065 43.2178C77.8579 43.2568 78.0752 43.3105 78.3584 43.3789C78.5977 43.4375 78.7808 43.4839 78.9077 43.5181C79.0396 43.5522 79.2227 43.606 79.457 43.6792C79.6914 43.7524 79.877 43.8208 80.0137 43.8843C80.1504 43.9429 80.3188 44.0259 80.519 44.1333C80.7192 44.2358 80.8779 44.3408 80.9951 44.4482C81.1172 44.5508 81.2466 44.6802 81.3833 44.8364C81.5249 44.9927 81.6323 45.1562 81.7056 45.3271C81.7788 45.498 81.8398 45.6958 81.8887 45.9204C81.9424 46.145 81.9692 46.3843 81.9692 46.6382C81.9692 47.1899 81.8643 47.6831 81.6543 48.1177C81.4443 48.5522 81.1562 48.9062 80.79 49.1797C80.4287 49.4482 80.0088 49.6533 79.5303 49.7949C79.0566 49.9316 78.5439 50 77.9922 50ZM93.959 49.7949L93.2266 47.8027H89.0444L88.3267 49.7949H85.917L90.0332 39.292H92.1719L96.4199 49.7949H93.959ZM91.1245 42.0679L89.7549 45.8252H92.5088L91.1245 42.0679ZM103.532 49.7949L101.481 46.2134H100.023V49.7949H97.7529V39.292H101.994C103.048 39.292 103.922 39.6216 104.616 40.2808C105.314 40.9351 105.663 41.7651 105.663 42.771C105.663 43.4497 105.492 44.0576 105.15 44.5947C104.809 45.127 104.342 45.5371 103.751 45.8252L106.073 49.7949H103.532ZM100.023 41.394V44.1113H101.84C102.309 44.1113 102.68 43.9868 102.953 43.7378C103.227 43.4839 103.363 43.1567 103.363 42.7563C103.363 42.356 103.227 42.0288 102.953 41.7749C102.68 41.521 102.309 41.394 101.84 41.394H100.023ZM109.94 47.6782H114.137V49.7949H107.67V39.292H113.976V41.394H109.94V43.4668H113.581V45.5249H109.94V47.6782ZM30.6411 67.6855H34.6694V69.7949H28.3706V59.292H30.6411V67.6855ZM36.2075 69.7949V59.292H38.478V69.7949H36.2075ZM53.749 69.7949H51.4346L50.4019 62.9395L47.2671 69.7729H46.7104L43.5757 62.9468L42.543 69.7949H40.2285L41.8691 59.292H44.147L46.9888 65.73L49.8379 59.292H52.123L53.749 69.7949ZM55.4995 69.7949V59.292H57.77V69.7949H55.4995ZM67.4087 59.292V61.4014H64.4863V69.7949H62.2158V61.4014H59.3008V59.292H67.4087ZM71.2026 67.6782H75.3994V69.7949H68.9321V59.292H75.2383V61.394H71.2026V63.4668H74.8428V65.5249H71.2026V67.6782ZM81.2808 59.292C82.0425 59.292 82.7529 59.4238 83.4121 59.6875C84.0762 59.9512 84.6401 60.3149 85.104 60.7788C85.5728 61.2378 85.939 61.792 86.2026 62.4414C86.4712 63.0908 86.6055 63.7891 86.6055 64.5361C86.6055 65.2881 86.4712 65.9912 86.2026 66.6455C85.9341 67.2949 85.5654 67.8516 85.0967 68.3154C84.6328 68.7744 84.0688 69.1357 83.4048 69.3994C82.7456 69.6631 82.0376 69.7949 81.2808 69.7949H77.311V59.292H81.2808ZM81.2295 67.6855C82.1279 67.6855 82.8604 67.3926 83.4268 66.8066C83.998 66.2158 84.2837 65.459 84.2837 64.5361C84.2837 63.6133 83.998 62.8613 83.4268 62.2803C82.8604 61.6943 82.1279 61.4014 81.2295 61.4014H79.5815V67.6855H81.2295ZM98.5952 69.7949L97.8628 67.8027H93.6807L92.9629 69.7949H90.5532L94.6694 59.292H96.8081L101.056 69.7949H98.5952ZM95.7607 62.0679L94.3911 65.8252H97.145L95.7607 62.0679ZM109.047 59.292H111.273V69.7949H109.376L104.616 63.2324V69.7949H102.389V59.292H104.44L109.047 65.7007V59.292ZM117.638 59.292C118.4 59.292 119.11 59.4238 119.77 59.6875C120.434 59.9512 120.998 60.3149 121.461 60.7788C121.93 61.2378 122.296 61.792 122.56 62.4414C122.829 63.0908 122.963 63.7891 122.963 64.5361C122.963 65.2881 122.829 65.9912 122.56 66.6455C122.292 67.2949 121.923 67.8516 121.454 68.3154C120.99 68.7744 120.426 69.1357 119.762 69.3994C119.103 69.6631 118.395 69.7949 117.638 69.7949H113.668V59.292H117.638ZM117.587 67.6855C118.485 67.6855 119.218 67.3926 119.784 66.8066C120.355 66.2158 120.641 65.459 120.641 64.5361C120.641 63.6133 120.355 62.8613 119.784 62.2803C119.218 61.6943 118.485 61.4014 117.587 61.4014H115.939V67.6855H117.587ZM54.7085 81.4087H50.7095V83.7158H54.3203V85.7739H50.7095V89.7949H48.439V79.292H54.7085V81.4087ZM56.4663 89.7949V79.292H58.7368V89.7949H56.4663ZM63.4097 87.6855H67.438V89.7949H61.1392V79.292H63.4097V87.6855ZM71.2466 87.6855H75.2749V89.7949H68.9761V79.292H71.2466V87.6855ZM76.813 89.7949V79.292H79.0835V89.7949H76.813ZM88.1436 79.292H90.3701V89.7949H88.4731L83.7124 83.2324V89.7949H81.4858V79.292H83.5366L88.1436 85.7007V79.292ZM97.3721 84.3091H102.96C102.96 85.3931 102.733 86.3696 102.279 87.2388C101.83 88.1079 101.195 88.7891 100.375 89.2822C99.5596 89.7754 98.6343 90.022 97.5991 90.022C96.8374 90.022 96.1196 89.8853 95.4458 89.6118C94.7769 89.3335 94.2007 88.9551 93.7173 88.4766C93.2339 87.9932 92.853 87.4146 92.5747 86.7407C92.2964 86.062 92.1572 85.3345 92.1572 84.5581C92.1572 83.7817 92.2939 83.0542 92.5674 82.3755C92.8408 81.6968 93.2144 81.1157 93.688 80.6323C94.1616 80.144 94.7329 79.7607 95.4019 79.4824C96.0708 79.2041 96.7886 79.0649 97.5552 79.0649C98.4146 79.0649 99.2153 79.2358 99.9575 79.5776C100.705 79.9146 101.327 80.3882 101.825 80.9985C102.328 81.604 102.66 82.2949 102.821 83.0713H100.478C100.253 82.5098 99.8818 82.0654 99.3643 81.7383C98.8467 81.4062 98.2583 81.2402 97.5991 81.2402C96.6714 81.2402 95.9146 81.5479 95.3286 82.1631C94.7476 82.7783 94.457 83.5767 94.457 84.5581C94.457 85.5347 94.7451 86.3281 95.3213 86.9385C95.8975 87.5488 96.6567 87.854 97.5991 87.854C98.2778 87.854 98.8857 87.6904 99.4229 87.3633C99.96 87.0312 100.326 86.5942 100.521 86.0522H97.3721V84.3091ZM54.54 110.923H52.2256L51.0024 109.509C50.2407 109.851 49.4229 110.022 48.5488 110.022C47.7578 110.022 47.0156 109.883 46.3223 109.604C45.6289 109.321 45.0356 108.938 44.5425 108.455C44.0493 107.971 43.6587 107.39 43.3706 106.711C43.0874 106.033 42.9458 105.31 42.9458 104.543C42.9458 103.777 43.0874 103.054 43.3706 102.375C43.6587 101.697 44.0493 101.116 44.5425 100.632C45.0356 100.149 45.6289 99.7681 46.3223 99.4897C47.0156 99.2065 47.7578 99.0649 48.5488 99.0649C49.335 99.0649 50.0723 99.2041 50.7607 99.4824C51.4541 99.7607 52.0449 100.144 52.5332 100.632C53.0264 101.116 53.4146 101.697 53.6978 102.375C53.981 103.049 54.1226 103.772 54.1226 104.543C54.1226 105.33 53.9761 106.064 53.6831 106.748C53.395 107.432 52.9897 108.022 52.4673 108.521L54.54 110.923ZM48.5488 107.883C48.8564 107.883 49.1689 107.839 49.4863 107.751L47.3989 105.334H49.7134L50.9878 106.814C51.5444 106.189 51.8228 105.432 51.8228 104.543C51.8228 103.591 51.5103 102.798 50.8853 102.163C50.2603 101.528 49.4814 101.211 48.5488 101.211C47.6162 101.211 46.8325 101.531 46.1978 102.17C45.563 102.81 45.2456 103.601 45.2456 104.543C45.2456 105.486 45.563 106.279 46.1978 106.924C46.8325 107.563 47.6162 107.883 48.5488 107.883ZM63.2778 108.85C62.4575 109.631 61.4224 110.022 60.1724 110.022C58.9224 110.022 57.8848 109.631 57.0596 108.85C56.2393 108.064 55.8291 107.061 55.8291 105.84V99.292H58.1069V105.737C58.1069 106.387 58.2974 106.907 58.6782 107.297C59.064 107.688 59.562 107.883 60.1724 107.883C60.7827 107.883 61.2783 107.688 61.6592 107.297C62.04 106.907 62.2305 106.387 62.2305 105.737V99.292H64.5083V105.84C64.5083 107.061 64.0981 108.064 63.2778 108.85ZM66.7935 109.795V99.292H69.064V109.795H66.7935ZM76.2783 110.022C75.5215 110.022 74.8062 109.883 74.1323 109.604C73.4634 109.321 72.8896 108.938 72.4111 108.455C71.9326 107.971 71.5542 107.393 71.2759 106.719C70.9976 106.04 70.8584 105.32 70.8584 104.558C70.8584 103.787 70.9976 103.062 71.2759 102.383C71.5542 101.704 71.9326 101.123 72.4111 100.64C72.8896 100.156 73.4634 99.7754 74.1323 99.4971C74.8062 99.2139 75.5215 99.0723 76.2783 99.0723C77.5527 99.0723 78.6562 99.458 79.5889 100.229C80.5264 101.001 81.1172 102.009 81.3613 103.254H79.0835C78.8638 102.629 78.5049 102.139 78.0068 101.782C77.5137 101.421 76.9375 101.24 76.2783 101.24C75.3896 101.24 74.6475 101.558 74.0518 102.192C73.4561 102.822 73.1582 103.611 73.1582 104.558C73.1582 105.5 73.4561 106.287 74.0518 106.917C74.6475 107.542 75.3896 107.854 76.2783 107.854C76.9668 107.854 77.5625 107.661 78.0654 107.275C78.5684 106.885 78.915 106.355 79.1055 105.686H81.3979C81.1587 106.985 80.5703 108.032 79.6328 108.828C78.6953 109.624 77.5771 110.022 76.2783 110.022ZM91.791 109.795H89.0151L85.3091 104.668V109.795H83.0386V99.292H85.3091V104.148L88.7515 99.292H91.4028L87.8286 104.324L91.791 109.795ZM95.1528 107.686H99.1812V109.795H92.8823V99.292H95.1528V107.686ZM108.161 99.292L104.462 105.554V109.795H102.133V105.54L98.4707 99.292H100.888L103.312 103.496L105.744 99.292H108.161Z" fill="#E21E2C"/>
</svg>
