<svg width="139" height="139" viewBox="0 0 139 139" fill="none" xmlns="http://www.w3.org/2000/svg">
<path d="M136.56 65.9604C138.602 67.8486 138.602 71.2003 136.56 73.0885C130.358 78.8221 129.046 84.6668 132.417 92.0737C133.61 94.6936 132.245 97.9218 129.531 98.8802C122.094 101.506 118.899 106.18 119.252 113.979C119.384 116.877 116.877 119.384 113.979 119.252C106.18 118.899 101.506 122.094 98.8802 129.531C97.9218 132.245 94.6936 133.61 92.0737 132.417C84.6668 129.046 78.8221 130.358 73.0885 136.56C71.2003 138.602 67.8486 138.602 65.9604 136.56C60.2268 130.358 54.382 129.046 46.9752 132.417C44.3552 133.61 41.127 132.245 40.1687 129.531C37.5428 122.094 32.8693 118.899 25.0703 119.252C22.1715 119.384 19.6653 116.877 19.7966 113.979C20.1498 106.18 16.9552 101.506 9.51787 98.8802C6.80347 97.9218 5.43883 94.6936 6.63142 92.0737C10.003 84.6668 8.69077 78.8221 2.48882 73.0885C0.446439 71.2003 0.446442 67.8486 2.48879 65.9604C8.69072 60.2266 10.0021 54.3815 6.63051 46.9743C5.43809 44.3546 6.80246 41.1269 9.51656 40.1686C16.9548 37.5424 20.1498 32.8694 19.7966 25.0702C19.6653 22.1715 22.1715 19.6652 25.0703 19.7965C32.8693 20.1497 37.5428 16.9552 40.1687 9.51783C41.127 6.80342 44.3552 5.43879 46.9752 6.63138C54.382 10.0029 60.2268 8.69076 65.9604 2.48882C67.8486 0.446438 71.2003 0.446443 73.0885 2.48879C78.8223 8.69072 84.6673 10.0021 92.0746 6.63047C94.6943 5.43805 97.922 6.80242 98.8802 9.51652C101.506 16.9548 106.179 20.1497 113.979 19.7965C116.877 19.6652 119.384 22.1714 119.252 25.0702C118.899 32.8692 122.094 37.5428 129.531 40.1687C132.245 41.127 133.61 44.3552 132.417 46.9752C129.046 54.382 130.358 60.2268 136.56 65.9604Z" fill="#F7DE8C"/>
<path d="M30.777 78.5908C29.71 79.9515 28.2669 80.6319 26.4479 80.6319C24.6289 80.6319 23.1859 79.9515 22.1188 78.5908C21.0518 77.223 20.5182 75.3718 20.5182 73.0371C20.5182 70.6953 21.0482 68.8477 22.1081 67.4942C23.168 66.1335 24.6146 65.4531 26.4479 65.4531C28.2813 65.4531 29.7279 66.1335 30.7878 67.4942C31.8477 68.8477 32.3776 70.6953 32.3776 73.0371C32.3776 75.3718 31.8441 77.223 30.777 78.5908ZM24.3962 76.4961C24.8688 77.2982 25.5527 77.6992 26.4479 77.6992C27.3431 77.6992 28.027 77.3018 28.4997 76.5069C28.9723 75.7119 29.2087 74.5625 29.2087 73.0586C29.2087 71.5547 28.9688 70.4017 28.4889 69.5996C28.0091 68.7904 27.3288 68.3858 26.4479 68.3858C25.5527 68.3858 24.8688 68.7868 24.3962 69.5889C23.9235 70.3838 23.6872 71.5332 23.6872 73.0371C23.6872 74.541 23.9235 75.694 24.3962 76.4961Z" fill="#E21E2C"/>
<path d="M39.9294 77.4092H44.3981V80.3633H34.1393V79.6758C36.2376 77.2552 37.738 75.4792 38.6403 74.3477C39.5427 73.2162 40.1514 72.3532 40.4665 71.7588C40.7887 71.1644 40.9499 70.5987 40.9499 70.0615C40.9499 69.5531 40.7923 69.1449 40.4772 68.8369C40.1693 68.5218 39.7682 68.3643 39.2741 68.3643C38.7585 68.3643 38.3431 68.5254 38.028 68.8477C37.7201 69.1628 37.5661 69.5817 37.5661 70.1045V70.3838H34.4186V70.0615C34.4186 68.7009 34.8555 67.5908 35.7292 66.7315C36.61 65.8649 37.7738 65.4317 39.2204 65.4317C40.6598 65.4317 41.8343 65.8614 42.7438 66.7207C43.6605 67.5801 44.1188 68.683 44.1188 70.0293C44.1188 70.9675 43.8324 71.9558 43.2594 72.9942C42.6865 74.0254 41.5765 75.4971 39.9294 77.4092Z" fill="#E21E2C"/>
<path d="M46.8259 72.3174V68.8906H50.2311V72.3174H46.8259ZM46.8259 80.3633V76.9258H50.2311V80.3633H46.8259Z" fill="#E21E2C"/>
<path d="M62.8962 78.5908C61.8291 79.9515 60.3861 80.6319 58.5671 80.6319C56.7481 80.6319 55.305 79.9515 54.238 78.5908C53.1709 77.223 52.6374 75.3718 52.6374 73.0371C52.6374 70.6953 53.1673 68.8477 54.2272 67.4942C55.2871 66.1335 56.7337 65.4531 58.5671 65.4531C60.4004 65.4531 61.847 66.1335 62.9069 67.4942C63.9668 68.8477 64.4968 70.6953 64.4968 73.0371C64.4968 75.3718 63.9632 77.223 62.8962 78.5908ZM56.5153 76.4961C56.988 77.2982 57.6719 77.6992 58.5671 77.6992C59.4622 77.6992 60.1462 77.3018 60.6188 76.5069C61.0915 75.7119 61.3278 74.5625 61.3278 73.0586C61.3278 71.5547 61.0879 70.4017 60.6081 69.5996C60.1283 68.7904 59.4479 68.3858 58.5671 68.3858C57.6719 68.3858 56.988 68.7868 56.5153 69.5889C56.0427 70.3838 55.8063 71.5332 55.8063 73.0371C55.8063 74.541 56.0427 75.694 56.5153 76.4961Z" fill="#E21E2C"/>
<path d="M76.8395 78.5908C75.7725 79.9515 74.3294 80.6319 72.5104 80.6319C70.6914 80.6319 69.2484 79.9515 68.1813 78.5908C67.1143 77.223 66.5807 75.3718 66.5807 73.0371C66.5807 70.6953 67.1107 68.8477 68.1706 67.4942C69.2305 66.1335 70.6771 65.4531 72.5104 65.4531C74.3438 65.4531 75.7904 66.1335 76.8503 67.4942C77.9102 68.8477 78.4401 70.6953 78.4401 73.0371C78.4401 75.3718 77.9066 77.223 76.8395 78.5908ZM70.4587 76.4961C70.9313 77.2982 71.6152 77.6992 72.5104 77.6992C73.4056 77.6992 74.0895 77.3018 74.5622 76.5069C75.0348 75.7119 75.2712 74.5625 75.2712 73.0586C75.2712 71.5547 75.0313 70.4017 74.5514 69.5996C74.0716 68.7904 73.3913 68.3858 72.5104 68.3858C71.6152 68.3858 70.9313 68.7868 70.4587 69.5889C69.986 70.3838 69.7497 71.5332 69.7497 73.0371C69.7497 74.541 69.986 75.694 70.4587 76.4961Z" fill="#E21E2C"/>
<path d="M92.4372 64.959C93.4541 64.959 94.3744 65.1882 95.1979 65.6465C96.0287 66.0977 96.6803 66.7315 97.153 67.5479C97.6328 68.3571 97.8727 69.2595 97.8727 70.2549C97.8727 71.7731 97.3535 73.0371 96.3151 74.0469C95.2767 75.0495 93.9841 75.5508 92.4372 75.5508H89.8376V80.3633H86.5075V64.959H92.4372ZM92.2868 72.4678C92.9385 72.4678 93.4684 72.2601 93.8766 71.8447C94.2848 71.4294 94.4889 70.8994 94.4889 70.2549C94.4889 69.6104 94.2848 69.084 93.8766 68.6758C93.4756 68.2604 92.9456 68.0528 92.2868 68.0528H89.8376V72.4678H92.2868Z" fill="#E21E2C"/>
<path d="M118.766 80.3633H115.372L113.857 70.3086L109.259 80.3311H108.443L103.845 70.3194L102.331 80.3633H98.9362L101.342 64.959H104.683L108.851 74.4014L113.03 64.959H116.382L118.766 80.3633Z" fill="#E21E2C"/>
<path d="M44.3766 93.959V97.0528H40.0905V109.363H36.7604V97.0528H32.485V93.959H44.3766Z" fill="#E21E2C"/>
<path d="M53.4323 109.696C52.2721 109.696 51.1836 109.492 50.1667 109.084C49.1497 108.669 48.2761 108.106 47.5456 107.397C46.8223 106.688 46.2494 105.836 45.8268 104.841C45.4115 103.845 45.2038 102.786 45.2038 101.661C45.2038 100.537 45.4115 99.4769 45.8268 98.4815C46.2494 97.486 46.8223 96.6338 47.5456 95.9248C48.2761 95.2158 49.1497 94.6572 50.1667 94.249C51.1836 93.8337 52.2721 93.626 53.4323 93.626C54.5853 93.626 55.6667 93.8301 56.6764 94.2383C57.6934 94.6465 58.5599 95.2087 59.2761 95.9248C59.9994 96.6338 60.5687 97.486 60.9841 98.4815C61.3994 99.4697 61.6071 100.53 61.6071 101.661C61.6071 102.793 61.3994 103.856 60.9841 104.852C60.5687 105.84 59.9994 106.692 59.2761 107.408C58.5599 108.117 57.6934 108.676 56.6764 109.084C55.6667 109.492 54.5853 109.696 53.4323 109.696ZM49.9841 105.152C50.915 106.091 52.0645 106.56 53.4323 106.56C54.8001 106.56 55.9424 106.094 56.8591 105.163C57.7757 104.225 58.2341 103.058 58.2341 101.661C58.2341 100.265 57.7757 99.1009 56.8591 98.1699C55.9424 97.239 54.8001 96.7735 53.4323 96.7735C52.0645 96.7735 50.915 97.2425 49.9841 98.1807C49.0531 99.1188 48.5876 100.279 48.5876 101.661C48.5876 103.043 49.0531 104.207 49.9841 105.152Z" fill="#E21E2C"/>
<path d="M70.0505 93.959C71.1676 93.959 72.2096 94.1524 73.1764 94.5391C74.1504 94.9258 74.9775 95.4593 75.6579 96.1397C76.3454 96.8128 76.8825 97.6257 77.2692 98.5781C77.6631 99.5306 77.86 100.555 77.86 101.65C77.86 102.753 77.6631 103.785 77.2692 104.744C76.8753 105.697 76.3346 106.513 75.6471 107.193C74.9668 107.867 74.1397 108.397 73.1657 108.783C72.1989 109.17 71.1605 109.363 70.0505 109.363H64.2282V93.959H70.0505ZM69.9753 106.27C71.293 106.27 72.3672 105.84 73.1979 104.98C74.0358 104.114 74.4548 103.004 74.4548 101.65C74.4548 100.297 74.0358 99.194 73.1979 98.3418C72.3672 97.4824 71.293 97.0528 69.9753 97.0528H67.5583V106.27H69.9753Z" fill="#E21E2C"/>
<path d="M90.0954 109.363L89.0212 106.441H82.8874L81.8346 109.363H78.3005L84.3376 93.959H87.4743L93.7048 109.363H90.0954ZM85.9382 98.0303L83.9294 103.541H87.9684L85.9382 98.0303Z" fill="#E21E2C"/>
<path d="M106.703 93.959L101.278 103.144V109.363H97.862V103.122L92.4909 93.959H96.0358L99.5915 100.125L103.158 93.959H106.703Z" fill="#E21E2C"/>
<path d="M42.7349 36.25C41.7583 36.25 40.9712 35.9922 40.3736 35.4766C39.7759 34.9571 39.4771 34.252 39.4771 33.3614H41.3052C41.3052 33.7481 41.4419 34.0469 41.7154 34.2578C41.9888 34.4649 42.3247 34.5684 42.7232 34.5684C43.0865 34.5684 43.4029 34.4785 43.6724 34.2989C43.9419 34.1192 44.0767 33.8789 44.0767 33.5782C44.0767 33.4727 44.0572 33.377 44.0181 33.291C43.9829 33.2051 43.9204 33.1289 43.8306 33.0625C43.7447 32.9961 43.6607 32.9395 43.5786 32.8926C43.5005 32.8457 43.3833 32.7989 43.2271 32.752C43.0708 32.7051 42.9419 32.6699 42.8404 32.6465C42.7427 32.6192 42.5943 32.5821 42.395 32.5352C41.6919 32.3633 41.1841 32.2012 40.8716 32.0489C40.1294 31.6934 39.7115 31.1465 39.6177 30.4082C39.6021 30.291 39.5943 30.1699 39.5943 30.0449C39.5943 29.2481 39.8657 28.6309 40.4087 28.1934C40.9556 27.752 41.6997 27.5313 42.6411 27.5313C43.6021 27.5313 44.3462 27.7715 44.8736 28.252C45.4048 28.7285 45.6704 29.3887 45.6704 30.2324H43.8716C43.8716 29.8887 43.7486 29.627 43.5025 29.4473C43.2603 29.2637 42.9575 29.1719 42.5943 29.1719C42.27 29.1719 41.9907 29.2403 41.7564 29.377C41.5259 29.5137 41.4107 29.711 41.4107 29.9688C41.4107 30.0821 41.44 30.1856 41.4986 30.2793C41.5611 30.3731 41.6333 30.4492 41.7154 30.5078C41.7974 30.5664 41.9204 30.627 42.0845 30.6895C42.2486 30.7481 42.3892 30.793 42.5064 30.8242C42.6275 30.8555 42.8013 30.8985 43.0279 30.9532C43.2193 31 43.3657 31.0371 43.4673 31.0645C43.5728 31.0918 43.7193 31.1348 43.9068 31.1934C44.0943 31.252 44.2427 31.3067 44.3521 31.3574C44.4615 31.4043 44.5962 31.4707 44.7564 31.5567C44.9165 31.6387 45.0435 31.7227 45.1372 31.8086C45.2349 31.8907 45.3384 31.9942 45.4478 32.1192C45.5611 32.2442 45.647 32.375 45.7056 32.5117C45.7642 32.6485 45.813 32.8067 45.8521 32.9864C45.895 33.166 45.9165 33.3574 45.9165 33.5606C45.9165 34.002 45.8325 34.3965 45.6646 34.7442C45.4966 35.0918 45.2661 35.375 44.9732 35.5938C44.6841 35.8086 44.3482 35.9727 43.9654 36.086C43.5865 36.1953 43.1763 36.25 42.7349 36.25Z" fill="black"/>
<path d="M52.6724 36.086L52.0865 34.4922H48.7407L48.1665 36.086H46.2388L49.5318 27.6836H51.2427L54.6411 36.086H52.6724ZM50.4048 29.9043L49.3091 32.9102H51.5122L50.4048 29.9043Z" fill="black"/>
<path d="M66.0025 36.086H64.1509L63.3247 30.6016L60.8169 36.0684H60.3716L57.8638 30.6074L57.0376 36.086H55.1861L56.4986 27.6836H58.3208L60.5943 32.834L62.8736 27.6836H64.7017L66.0025 36.086Z" fill="black"/>
<path d="M69.2193 34.3926H72.5767V36.086H67.4029V27.6836H72.4478V29.3653H69.2193V31.0235H72.1314V32.6699H69.2193V34.3926Z" fill="black"/>
<path d="M80.1529 27.6836C80.7622 27.6836 81.3306 27.7891 81.8579 28C82.3892 28.211 82.8404 28.502 83.2114 28.8731C83.5864 29.2403 83.8794 29.6836 84.0904 30.2032C84.3052 30.7227 84.4126 31.2813 84.4126 31.8789C84.4126 32.4805 84.3052 33.043 84.0904 33.5664C83.8755 34.086 83.5806 34.5313 83.2056 34.9024C82.8345 35.2696 82.3833 35.5586 81.8521 35.7696C81.3247 35.9805 80.7583 36.086 80.1529 36.086H76.9771V27.6836H80.1529ZM80.1118 34.3985C80.8306 34.3985 81.4165 34.1641 81.8697 33.6953C82.3267 33.2227 82.5552 32.6172 82.5552 31.8789C82.5552 31.1407 82.3267 30.5391 81.8697 30.0742C81.4165 29.6055 80.8306 29.3711 80.1118 29.3711H78.7935V34.3985H80.1118Z" fill="black"/>
<path d="M91.0864 36.086L90.5005 34.4922H87.1548L86.5806 36.086H84.6529L87.9458 27.6836H89.6568L93.0552 36.086H91.0864ZM88.8189 29.9043L87.7232 32.9102H89.9263L88.8189 29.9043Z" fill="black"/>
<path d="M100.145 27.6836L97.1861 32.6934V36.086H95.3228V32.6817L92.3931 27.6836H94.3267L96.2661 31.0469L98.2114 27.6836H100.145Z" fill="black"/>
<path d="M45.4361 52.9883H43.5845L42.606 51.8574C41.9966 52.1309 41.3423 52.2676 40.6431 52.2676C40.0103 52.2676 39.4165 52.1563 38.8618 51.9336C38.3072 51.7071 37.8325 51.4004 37.438 51.0137C37.0435 50.627 36.731 50.1621 36.5005 49.6192C36.274 49.0762 36.1607 48.4981 36.1607 47.8848C36.1607 47.2715 36.274 46.6934 36.5005 46.1504C36.731 45.6074 37.0435 45.1426 37.438 44.7559C37.8325 44.3692 38.3072 44.0645 38.8618 43.8418C39.4165 43.6153 40.0103 43.502 40.6431 43.502C41.272 43.502 41.8618 43.6133 42.4126 43.836C42.9673 44.0586 43.44 44.3653 43.8306 44.7559C44.2251 45.1426 44.5357 45.6074 44.7622 46.1504C44.9888 46.6895 45.1021 47.2676 45.1021 47.8848C45.1021 48.5137 44.9849 49.1016 44.7505 49.6485C44.52 50.1953 44.1958 50.668 43.7779 51.0664L45.4361 52.9883ZM40.6431 50.5567C40.8892 50.5567 41.1392 50.5215 41.3931 50.4512L39.7232 48.5176H41.5747L42.5943 49.7012C43.0396 49.2012 43.2622 48.5957 43.2622 47.8848C43.2622 47.1231 43.0122 46.4883 42.5122 45.9805C42.0122 45.4727 41.3892 45.2188 40.6431 45.2188C39.897 45.2188 39.27 45.4746 38.7622 45.9864C38.2544 46.4981 38.0005 47.1309 38.0005 47.8848C38.0005 48.6387 38.2544 49.2735 38.7622 49.7891C39.27 50.3008 39.897 50.5567 40.6431 50.5567Z" fill="black"/>
<path d="M52.4263 51.3301C51.77 51.9551 50.9419 52.2676 49.9419 52.2676C48.9419 52.2676 48.1118 51.9551 47.4517 51.3301C46.7954 50.7012 46.4673 49.8985 46.4673 48.9219V43.6836H48.2896V48.8399C48.2896 49.3594 48.4419 49.7754 48.7466 50.0879C49.0552 50.4004 49.4536 50.5567 49.9419 50.5567C50.4302 50.5567 50.8267 50.4004 51.1314 50.0879C51.4361 49.7754 51.5884 49.3594 51.5884 48.8399V43.6836H53.4107V48.9219C53.4107 49.8985 53.0825 50.7012 52.4263 51.3301Z" fill="black"/>
<path d="M59.229 52.2676C58.5962 52.2676 58.0025 52.1563 57.4478 51.9336C56.8931 51.7071 56.4165 51.4004 56.0181 51.0137C55.6236 50.627 55.3111 50.1621 55.0806 49.6192C54.854 49.0762 54.7407 48.4981 54.7407 47.8848C54.7407 47.2715 54.854 46.6934 55.0806 46.1504C55.3111 45.6074 55.6236 45.1426 56.0181 44.7559C56.4165 44.3692 56.8931 44.0645 57.4478 43.8418C58.0025 43.6153 58.5962 43.502 59.229 43.502C59.8579 43.502 60.4478 43.6133 60.9986 43.836C61.5532 44.0586 62.0259 44.3653 62.4165 44.7559C62.8111 45.1426 63.1216 45.6074 63.3482 46.1504C63.5747 46.6895 63.688 47.2676 63.688 47.8848C63.688 48.502 63.5747 49.0821 63.3482 49.625C63.1216 50.1641 62.8111 50.6289 62.4165 51.0196C62.0259 51.4063 61.5532 51.711 60.9986 51.9336C60.4478 52.1563 59.8579 52.2676 59.229 52.2676ZM57.3482 49.7891C57.856 50.3008 58.4829 50.5567 59.229 50.5567C59.9751 50.5567 60.5982 50.3028 61.0982 49.7949C61.5982 49.2832 61.8482 48.6465 61.8482 47.8848C61.8482 47.1231 61.5982 46.4883 61.0982 45.9805C60.5982 45.4727 59.9751 45.2188 59.229 45.2188C58.4829 45.2188 57.856 45.4746 57.3482 45.9864C56.8404 46.4981 56.5865 47.1309 56.5865 47.8848C56.5865 48.6387 56.8404 49.2735 57.3482 49.7891Z" fill="black"/>
<path d="M70.6372 43.6836V45.3711H68.2993V52.086H66.4829V45.3711H64.1509V43.6836H70.6372Z" fill="black"/>
<path d="M73.6724 50.3926H77.0298V52.086H71.856V43.6836H76.9009V45.3653H73.6724V47.0235H76.5845V48.6699H73.6724V50.3926Z" fill="black"/>
<path d="M81.3482 52.25C80.3716 52.25 79.5845 51.9922 78.9868 51.4766C78.3892 50.9571 78.0904 50.252 78.0904 49.3614H79.9185C79.9185 49.7481 80.0552 50.0469 80.3286 50.2578C80.6021 50.4649 80.938 50.5684 81.3364 50.5684C81.6997 50.5684 82.0161 50.4785 82.2857 50.2989C82.5552 50.1192 82.69 49.8789 82.69 49.5782C82.69 49.4727 82.6704 49.377 82.6314 49.291C82.5962 49.2051 82.5337 49.1289 82.4439 49.0625C82.3579 48.9961 82.2739 48.9395 82.1919 48.8926C82.1138 48.8457 81.9966 48.7989 81.8404 48.752C81.6841 48.7051 81.5552 48.6699 81.4536 48.6465C81.356 48.6192 81.2075 48.5821 81.0083 48.5352C80.3052 48.3633 79.7974 48.2012 79.4849 48.0489C78.7427 47.6934 78.3247 47.1465 78.231 46.4082C78.2154 46.291 78.2075 46.1699 78.2075 46.0449C78.2075 45.2481 78.479 44.6309 79.022 44.1934C79.5689 43.752 80.313 43.5313 81.2544 43.5313C82.2154 43.5313 82.9595 43.7715 83.4868 44.252C84.0181 44.7285 84.2837 45.3887 84.2837 46.2324H82.4849C82.4849 45.8887 82.3618 45.627 82.1157 45.4473C81.8736 45.2637 81.5708 45.1719 81.2075 45.1719C80.8833 45.1719 80.604 45.2403 80.3697 45.377C80.1392 45.5137 80.0239 45.711 80.0239 45.9688C80.0239 46.0821 80.0532 46.1856 80.1118 46.2793C80.1743 46.3731 80.2466 46.4492 80.3286 46.5078C80.4107 46.5664 80.5337 46.627 80.6978 46.6895C80.8618 46.7481 81.0025 46.793 81.1197 46.8242C81.2407 46.8555 81.4146 46.8985 81.6411 46.9532C81.8325 47 81.979 47.0371 82.0806 47.0645C82.1861 47.0918 82.3325 47.1348 82.52 47.1934C82.7075 47.252 82.856 47.3067 82.9654 47.3574C83.0747 47.4043 83.2095 47.4707 83.3697 47.5567C83.5298 47.6387 83.6568 47.7227 83.7505 47.8086C83.8482 47.8907 83.9517 47.9942 84.0611 48.1192C84.1743 48.2442 84.2603 48.375 84.3189 48.5117C84.3775 48.6485 84.4263 48.8067 84.4654 48.9864C84.5083 49.166 84.5298 49.3574 84.5298 49.5606C84.5298 50.002 84.4458 50.3965 84.2779 50.7442C84.1099 51.0918 83.8794 51.375 83.5864 51.5938C83.2974 51.8086 82.9614 51.9727 82.5786 52.086C82.1997 52.1953 81.7896 52.25 81.3482 52.25Z" fill="black"/>
<path d="M93.9107 47.6563C94.2818 47.8477 94.5689 48.1192 94.772 48.4707C94.9751 48.8184 95.0767 49.2149 95.0767 49.6602C95.0767 50.3321 94.8169 50.9043 94.2974 51.377C93.7818 51.8496 93.1587 52.086 92.4282 52.086H88.8599V43.6836H92.3345C93.0572 43.6836 93.6587 43.8907 94.1392 44.3047C94.6197 44.7149 94.8599 45.2285 94.8599 45.8457C94.8599 46.2051 94.7759 46.5449 94.6079 46.8653C94.44 47.1856 94.2075 47.4492 93.9107 47.6563ZM92.8384 46.7774C93.0103 46.6094 93.0962 46.3926 93.0962 46.127C93.0962 45.8614 93.0103 45.6465 92.8384 45.4824C92.6665 45.3184 92.44 45.2364 92.1587 45.2364H90.647V47.0235H92.1587C92.4439 47.0235 92.6704 46.9414 92.8384 46.7774ZM92.2583 50.416C92.5552 50.416 92.7935 50.3282 92.9732 50.1524C93.1568 49.9766 93.2486 49.75 93.2486 49.4727C93.2486 49.1992 93.1568 48.9746 92.9732 48.7989C92.7935 48.6231 92.5552 48.5352 92.2583 48.5352H90.647V50.416H92.2583Z" fill="black"/>
<path d="M103.168 43.6836L100.209 48.6934V52.086H98.3462V48.6817L95.4165 43.6836H97.3501L99.2896 47.0469L101.235 43.6836H103.168Z" fill="black"/>
</svg>
