<svg width="25" height="24" viewBox="0 0 25 24" fill="none" xmlns="http://www.w3.org/2000/svg">
<g clip-path="url(#clip0_9064_774)">
<path d="M13.281 9.86058C13.2103 9.79227 13.1156 9.75447 13.0172 9.75532C12.9189 9.75618 12.8249 9.79562 12.7553 9.86514C12.6858 9.93467 12.6464 10.0287 12.6455 10.1271C12.6447 10.2254 12.6825 10.3201 12.7508 10.3908L13.5008 11.1408C13.5711 11.2111 13.6665 11.2506 13.7659 11.2506C13.8653 11.2506 13.9607 11.2111 14.031 11.1408L15.531 9.64083C15.5668 9.60623 15.5954 9.56486 15.6151 9.5191C15.6347 9.47335 15.6451 9.42414 15.6455 9.37435C15.6459 9.32456 15.6364 9.27518 15.6176 9.22909C15.5987 9.18301 15.5709 9.14114 15.5357 9.10593C15.5005 9.07072 15.4586 9.04287 15.4125 9.02402C15.3664 9.00516 15.317 8.99568 15.2672 8.99611C15.2175 8.99654 15.1683 9.00689 15.1225 9.02654C15.0767 9.04619 15.0354 9.07476 15.0008 9.11058L13.7659 10.3455L13.281 9.86058Z" fill="#E21E2C"/>
<path d="M14.4058 5.73479C14.3354 5.66449 14.2401 5.625 14.1406 5.625C14.0412 5.625 13.9458 5.66449 13.8755 5.73479C13.0397 6.55691 11.9356 7.05041 10.7656 7.12492C10.6662 7.12492 10.5708 7.16443 10.5005 7.23475C10.4301 7.30508 10.3906 7.40046 10.3906 7.49992V9.5673C10.3896 10.6822 10.74 11.769 11.3919 12.6734C12.0438 13.5779 12.9641 14.2539 14.0221 14.6054C14.0991 14.6313 14.1825 14.6313 14.2595 14.6054C15.3174 14.2538 16.2376 13.5779 16.8894 12.6735C17.5412 11.7692 17.8916 10.6824 17.8906 9.56767V7.49992C17.8904 7.40072 17.851 7.30562 17.781 7.23537C17.7109 7.16512 17.616 7.12541 17.5168 7.12492C16.3463 7.05071 15.2419 6.55718 14.4058 5.73479ZM17.1403 9.5673C17.1412 10.5033 16.8537 11.4169 16.317 12.1838C15.7803 12.9506 15.0204 13.5335 14.1406 13.8532C13.2608 13.5337 12.5008 12.9509 11.964 12.1841C11.4273 11.4173 11.1397 10.5037 11.1406 9.56767V7.8483C12.2509 7.71088 13.2952 7.24631 14.1406 6.51367C14.9861 7.24631 16.0304 7.71088 17.1406 7.8483L17.1403 9.5673Z" fill="#E21E2C"/>
<path d="M5.1968 7.58721C5.21749 7.63562 5.24814 7.67913 5.28676 7.71491C5.32537 7.75069 5.37109 7.77793 5.42093 7.79488C5.47077 7.81182 5.52362 7.81808 5.57604 7.81325C5.62846 7.80842 5.67928 7.79261 5.72518 7.76684L6.64056 7.25421V12.7498C6.64056 12.8493 6.68006 12.9447 6.75039 13.015C6.82072 13.0853 6.9161 13.1248 7.01556 13.1248C7.11501 13.1248 7.21039 13.0853 7.28072 13.015C7.35105 12.9447 7.39056 12.8493 7.39056 12.7498V6.83421L14.1406 3.05459L20.8906 6.83459V13.4998C20.8906 13.5993 20.9301 13.6947 21.0004 13.765C21.0707 13.8353 21.1661 13.8748 21.2656 13.8748C21.365 13.8748 21.4604 13.8353 21.5307 13.765C21.601 13.6947 21.6406 13.5993 21.6406 13.4998V7.25421L22.5559 7.76684C22.6018 7.79261 22.6527 7.80842 22.7051 7.81325C22.7575 7.81808 22.8103 7.81182 22.8602 7.79488C22.91 7.77793 22.9557 7.75069 22.9944 7.71491C23.033 7.67913 23.0636 7.63562 23.0843 7.58721L23.8606 5.77221C23.8969 5.68713 23.9005 5.59163 23.8706 5.50406C23.8408 5.4165 23.7796 5.34305 23.6989 5.29784L14.3239 0.0478388C14.2679 0.0164712 14.2048 0 14.1406 0C14.0763 0 14.0132 0.0164712 13.9572 0.0478388L4.58218 5.29784C4.50145 5.34312 4.44032 5.41666 4.41055 5.5043C4.38078 5.59195 4.38448 5.68751 4.42093 5.77259L5.1968 7.58721ZM14.1406 0.804589L23.0382 5.78759L22.5586 6.90884L14.3236 2.29784C14.2676 2.26643 14.2045 2.24994 14.1404 2.24994C14.0762 2.24994 14.0131 2.26643 13.9572 2.29784L5.72218 6.90884L5.24293 5.78759L14.1406 0.804589Z" fill="#E21E2C"/>
<path d="M23.6964 14.1885C23.412 14.0329 23.0902 13.9589 22.7665 13.9745C22.4427 13.9901 22.1296 14.0948 21.8615 14.277L15.5795 18.465C15.5136 18.2033 15.3918 17.959 15.2225 17.7488C15.0533 17.5386 14.8405 17.3676 14.5989 17.2474L8.72562 14.3104C8.1524 14.0246 7.52075 13.8756 6.88025 13.875H5.14062V13.5C5.14062 13.4005 5.10112 13.3052 5.03079 13.2348C4.96046 13.1645 4.86508 13.125 4.76562 13.125H2.89062C2.79117 13.125 2.69579 13.1645 2.62546 13.2348C2.55513 13.3052 2.51562 13.4005 2.51562 13.5V13.875H1.01562C0.916169 13.875 0.820786 13.9145 0.75046 13.9848C0.680134 14.0552 0.640625 14.1505 0.640625 14.25L0.640625 21.75C0.640625 21.8495 0.680134 21.9448 0.75046 22.0152C0.820786 22.0855 0.916169 22.125 1.01562 22.125H2.51562V22.5C2.51562 22.5995 2.55513 22.6948 2.62546 22.7652C2.69579 22.8355 2.79117 22.875 2.89062 22.875H4.76562C4.86508 22.875 4.96046 22.8355 5.03079 22.7652C5.10112 22.6948 5.14062 22.5995 5.14062 22.5V22.125H6.55887C7.05186 22.1258 7.53877 22.2339 7.98575 22.4419L10.247 23.4967C11.1005 23.8935 12.0431 24.0592 12.9808 23.9774C13.9184 23.8956 14.8181 23.5691 15.59 23.0306L23.8779 17.2294C24.1134 17.0644 24.3056 16.8451 24.4384 16.5901C24.5712 16.335 24.6405 16.0518 24.6406 15.7642C24.6434 15.4401 24.5568 15.1215 24.3902 14.8434C24.2236 14.5653 23.9835 14.3389 23.6964 14.1885ZM1.39062 21.375V14.625H2.51562V21.375H1.39062ZM4.39062 22.125H3.26562V13.875H4.39062V22.125ZM23.4481 16.6147L15.1602 22.416C14.4963 22.8792 13.7224 23.1601 12.9158 23.2305C12.1093 23.3009 11.2984 23.1584 10.5642 22.8172L8.303 21.762C7.75657 21.508 7.16144 21.376 6.55887 21.375H5.14062V14.625H6.88062C7.4044 14.6255 7.92092 14.7475 8.38962 14.9813L14.2636 17.9182C14.5286 18.0552 14.7289 18.2909 14.8214 18.5744C14.9138 18.858 14.8909 19.1665 14.7575 19.4333C14.6242 19.7 14.3911 19.9035 14.1089 19.9997C13.8266 20.096 13.5178 20.0771 13.2492 19.9474L7.93325 17.2894C7.84424 17.2449 7.74121 17.2376 7.64683 17.2691C7.55245 17.3007 7.47446 17.3684 7.43 17.4574C7.38554 17.5464 7.37827 17.6494 7.40977 17.7438C7.44128 17.8382 7.50899 17.9162 7.598 17.9606L12.9136 20.6182C13.1682 20.7457 13.4485 20.8138 13.7332 20.8173C14.0179 20.8208 14.2997 20.7596 14.5574 20.6384C14.815 20.5172 15.0418 20.3391 15.2207 20.1176C15.3996 19.896 15.5258 19.6368 15.59 19.3594L22.2774 14.901C22.4337 14.7968 22.6154 14.7369 22.803 14.7279C22.9907 14.7188 23.1773 14.7609 23.3429 14.8496C23.5085 14.9383 23.6469 15.0703 23.7434 15.2315C23.8399 15.3927 23.8907 15.5771 23.8906 15.765C23.8905 15.9318 23.8503 16.0962 23.7733 16.2441C23.6963 16.3921 23.5847 16.519 23.4481 16.6147Z" fill="#E21E2C"/>
</g>
<defs>
<clipPath id="clip0_9064_774">
<rect width="24" height="24" fill="white" transform="translate(0.640625)"/>
</clipPath>
</defs>
</svg>
