<svg preserveAspectRatio="none" width="100%" height="100%" overflow="visible" style="display: block;" viewBox="0 0 26 38" fill="none" xmlns="http://www.w3.org/2000/svg">
<path id="vector" d="M9.74698 30.7484L20.0028 18.3675H12.9849L14.3091 7.84337L5.03365 21.2238H11.1086L9.74698 30.7484ZM7.09781 24.708H1.87448C1.13281 24.708 0.586287 24.3818 0.234898 23.7296C-0.116769 23.0771 -0.0735742 22.4409 0.364481 21.8209L14.8953 0.872121C15.1728 0.486565 15.5242 0.226009 15.9495 0.0904534C16.3748 -0.0451021 16.8009 -0.0282982 17.2278 0.140868C17.6545 0.29948 17.9892 0.579063 18.232 0.979619C18.475 1.38045 18.5661 1.80559 18.5053 2.25504L16.9228 14.883H23.5249C24.3124 14.883 24.8678 15.2332 25.1911 15.9338C25.5142 16.6343 25.431 17.2867 24.9416 17.8909L9.05365 37.0038C8.75893 37.3599 8.39754 37.5874 7.96948 37.6863C7.5417 37.7849 7.12254 37.7402 6.71198 37.5521C6.3117 37.3743 6.00281 37.0941 5.78531 36.7113C5.56809 36.3285 5.4899 35.9089 5.55073 35.4525L7.09781 24.708Z" fill="var(--fill-0, #F39E8A)"/>
</svg>
