<svg preserveAspectRatio="none" width="100%" height="100%" overflow="visible" style="display: block;" viewBox="0 0 22 33" fill="none" xmlns="http://www.w3.org/2000/svg">
<path id="vector" d="M0 32.1679V28.5408C0.706667 28.14 1.34778 27.6918 1.92333 27.1963C2.49917 26.7007 2.99389 26.1667 3.4075 25.5942C3.82139 25.0219 4.13861 24.4103 4.35917 23.7592C4.57944 23.1081 4.68958 22.4285 4.68958 21.7204C4.68958 21.4301 4.67403 21.1407 4.64292 20.8521C4.61153 20.5635 4.56403 20.2832 4.50042 20.0113H0V16.3388H2.63083C1.78222 15.0749 1.17792 13.9015 0.817916 12.8188C0.457916 11.7357 0.277917 10.5801 0.277917 9.35208C0.277917 6.74486 1.18472 4.53431 2.99833 2.72042C4.81222 0.906807 7.02278 0 9.63 0C11.7056 0 13.539 0.53764 15.1304 1.61292C16.7218 2.68847 17.8889 4.14556 18.6317 5.98417L15.2362 7.41458C14.7693 6.25681 14.0307 5.34639 13.0204 4.68333C12.0101 4.02 10.88 3.68833 9.63 3.68833C8.05472 3.68833 6.71694 4.2325 5.61667 5.32083C4.51639 6.40917 3.96625 7.75292 3.96625 9.35208C3.96625 10.4715 4.18097 11.5306 4.61042 12.5292C5.04014 13.5278 5.82556 14.7976 6.96667 16.3388H14.2442V20.0113H8.1975C8.25583 20.2832 8.30056 20.5726 8.33167 20.8796C8.3625 21.1868 8.37792 21.4671 8.37792 21.7204C8.37792 23.0393 8.12194 24.2758 7.61 25.43C7.09778 26.5842 6.41236 27.6058 5.55375 28.495H13.7967C14.745 28.495 15.56 28.2257 16.2417 27.6871C16.9236 27.1485 17.4062 26.2914 17.6896 25.1158L21.0171 26.4892C20.6221 28.3003 19.7257 29.6994 18.3279 30.6867C16.9301 31.6742 15.4197 32.1679 13.7967 32.1679H0Z" fill="var(--fill-0, #F39E8A)"/>
</svg>
