<svg preserveAspectRatio="none" width="100%" height="100%" overflow="visible" style="display: block;" viewBox="0 0 38 35" fill="none" xmlns="http://www.w3.org/2000/svg">
<path id="vector" d="M18.68 31.1321C18.8061 31.1321 18.9466 31.105 19.1013 31.0508C19.256 30.9964 19.3902 30.9124 19.5038 30.7988L33.3184 16.9567C33.7064 16.5681 34.0032 16.1171 34.2088 15.6038C34.4143 15.0907 34.5171 14.5619 34.5171 14.0175C34.5171 13.4739 34.4143 12.9381 34.2088 12.41C34.0032 11.8819 33.7064 11.421 33.3184 11.0271L26.6875 4.39625C26.3239 4.03903 25.9067 3.77611 25.4359 3.6075C24.9648 3.43889 24.483 3.35458 23.9905 3.35458C23.5132 3.35458 23.04 3.43625 22.5709 3.59958C22.1014 3.76292 21.6986 4.00222 21.3625 4.3175L20.8905 4.81333L24.0109 7.95209C24.4481 8.41431 24.8114 8.93806 25.1009 9.52333C25.39 10.1083 25.5346 10.7499 25.5346 11.4479C25.5346 12.6863 25.0689 13.7661 24.1375 14.6875C23.2061 15.6089 22.1146 16.0696 20.863 16.0696C20.1191 16.0696 19.4734 15.9507 18.9259 15.7129C18.3784 15.4751 17.8764 15.1267 17.42 14.6675L14.3967 11.6546L7.4017 18.6421C7.28142 18.7518 7.19573 18.8781 7.14462 19.0208C7.09378 19.1633 7.06837 19.3115 7.06837 19.4654C7.06837 19.7735 7.17087 20.0311 7.37587 20.2383C7.58115 20.4453 7.83809 20.5488 8.1467 20.5488C8.30115 20.5488 8.4517 20.5118 8.59837 20.4379C8.74503 20.3638 8.86462 20.2804 8.95712 20.1879L14.4205 14.7325L16.365 16.6771L10.9442 22.1029C10.8234 22.2243 10.7374 22.3629 10.6863 22.5188C10.6355 22.6746 10.61 22.8247 10.61 22.9692C10.61 23.2708 10.7134 23.5261 10.92 23.735C11.1264 23.9442 11.3778 24.0488 11.6742 24.0488C11.8223 24.0488 11.9696 24.0164 12.1163 23.9517C12.2632 23.8869 12.3911 23.8079 12.5 23.7146L17.9071 18.2975L19.8517 20.2421L14.4159 25.6688C14.3286 25.7621 14.251 25.8881 14.183 26.0467C14.1149 26.2053 14.0809 26.36 14.0809 26.5108C14.0809 26.8114 14.1895 27.0704 14.4067 27.2879C14.6236 27.5054 14.882 27.6142 15.1817 27.6142C15.3317 27.6142 15.4731 27.5861 15.6059 27.53C15.7386 27.4739 15.86 27.3908 15.97 27.2808L21.4255 21.8158L23.3696 23.7604L17.9142 29.2154C17.8045 29.336 17.7216 29.4742 17.6655 29.63C17.6091 29.7858 17.5809 29.9267 17.5809 30.0525C17.5809 30.39 17.6825 30.6543 17.8859 30.8454C18.0889 31.0365 18.3536 31.1321 18.68 31.1321ZM18.6863 34.5146C17.6477 34.5146 16.7164 34.169 15.8925 33.4779C15.0686 32.7868 14.5506 31.9094 14.3384 30.8458C13.4359 30.6881 12.6611 30.2819 12.0142 29.6275C11.3675 28.9728 10.9643 28.1994 10.8046 27.3075C9.92823 27.1319 9.17351 26.7229 8.54045 26.0804C7.90767 25.4382 7.50351 24.685 7.32795 23.8208C6.27517 23.6139 5.40115 23.1019 4.70587 22.285C4.01031 21.4683 3.66253 20.5156 3.66253 19.4267C3.66253 18.8592 3.77656 18.2965 4.00462 17.7388C4.23267 17.1813 4.54865 16.6921 4.95253 16.2713L14.3967 6.83292L19.6567 12.0767C19.8336 12.2578 20.0288 12.4008 20.2421 12.5058C20.4557 12.6111 20.677 12.6638 20.9059 12.6638C21.2186 12.6638 21.503 12.5318 21.7588 12.2679C22.0146 12.004 22.1425 11.7164 22.1425 11.405C22.1425 11.2597 22.0967 11.09 22.005 10.8958C21.9131 10.7017 21.7845 10.5213 21.6192 10.3546L15.6046 4.34C15.2785 4.00472 14.8686 3.75667 14.375 3.59584C13.8814 3.435 13.3732 3.35458 12.8505 3.35458C12.3268 3.35458 11.8348 3.435 11.3742 3.59584C10.9134 3.75667 10.5207 4.00375 10.1963 4.33708L4.28087 10.2296C3.98531 10.5354 3.76545 10.8953 3.62128 11.3092C3.47684 11.7231 3.39392 12.1949 3.37253 12.7246C3.3617 13.1235 3.4417 13.5129 3.61253 13.8929C3.78309 14.2726 3.98115 14.6261 4.2067 14.9533L1.78295 17.3775C1.26017 16.8408 0.831701 16.1399 0.497534 15.2746C0.16309 14.409 -0.00274346 13.5451 3.43218e-05 12.6829C0.0028121 11.7268 0.162395 10.84 0.478784 10.0225C0.794895 9.205 1.27087 8.47847 1.9067 7.84292L7.76878 1.95708C8.43517 1.29486 9.22295 0.803055 10.1321 0.481667C11.0416 0.160555 11.9548 0 12.8717 0C13.8359 0 14.7582 0.160555 15.6388 0.481667C16.5191 0.803055 17.2853 1.27653 17.9375 1.90208L18.433 2.37417L18.9055 1.90208C19.5507 1.29736 20.3275 0.829167 21.2359 0.4975C22.1439 0.165833 23.0668 0 24.0046 0C24.9321 0 25.8432 0.17375 26.738 0.52125C27.633 0.868473 28.4116 1.3732 29.0738 2.03542L35.8438 8.78208C36.5168 9.4507 37.0238 10.2564 37.3646 11.1992C37.7054 12.1419 37.8759 13.081 37.8759 14.0163C37.8759 14.9674 37.6935 15.9182 37.3288 16.8688C36.9643 17.8193 36.4406 18.6414 35.7575 19.335L21.8721 33.1908C21.4441 33.6189 20.9574 33.9465 20.4121 34.1738C19.8666 34.401 19.2913 34.5146 18.6863 34.5146Z" fill="var(--fill-0, #F39E8A)"/>
</svg>
