<svg width="20" height="20" viewBox="0 0 20 20" fill="none" xmlns="http://www.w3.org/2000/svg">
<mask id="mask0_3628_18541" style="mask-type:alpha" maskUnits="userSpaceOnUse" x="0" y="0" width="20" height="20">
<rect width="20" height="20" fill="#D9D9D9"/>
</mask>
<g mask="url(#mask0_3628_18541)">
<path d="M15.8191 18.8365C15.6903 18.8365 15.5632 18.8113 15.4376 18.7608C15.3121 18.7104 15.2028 18.6388 15.1097 18.5458L10.916 14.3519C10.8229 14.259 10.7477 14.1462 10.6903 14.0135C10.633 13.881 10.6043 13.7505 10.6043 13.6219C10.6043 13.4933 10.633 13.3642 10.6903 13.2346C10.7477 13.105 10.8229 12.9937 10.916 12.9008L12.877 10.9279C12.9699 10.835 13.0812 10.7578 13.2107 10.6965C13.3403 10.6352 13.4694 10.6046 13.598 10.6046C13.7266 10.6046 13.8591 10.6352 13.9955 10.6965C14.1321 10.7578 14.2469 10.835 14.3399 10.9279L18.5337 15.1335C18.6267 15.2266 18.6985 15.3359 18.7489 15.4615C18.7993 15.5872 18.8245 15.7143 18.8245 15.8429C18.8245 15.9715 18.7973 16.104 18.7428 16.2404C18.6885 16.3769 18.6149 16.4917 18.522 16.5848L16.5399 18.5458C16.447 18.6388 16.3357 18.7104 16.2062 18.7608C16.0767 18.8113 15.9477 18.8365 15.8191 18.8365ZM15.8307 16.6235L16.6116 15.8429L13.5862 12.8175L12.8053 13.5983L15.8307 16.6235ZM4.22554 18.8248C4.08304 18.8248 3.94554 18.7946 3.81304 18.7342C3.68054 18.6737 3.56776 18.5971 3.4747 18.5042L1.502 16.5431C1.40894 16.4501 1.33915 16.3427 1.29262 16.221C1.24609 16.0994 1.22283 15.9742 1.22283 15.8456C1.22283 15.717 1.24956 15.5879 1.30304 15.4583C1.35651 15.3288 1.42977 15.2175 1.52283 15.1246L5.64679 11.0004H7.73741L8.69033 10.0475L5.502 6.85917H4.22012L1.12866 3.80021L3.74366 1.17604L6.82345 4.25583V5.5375L10.012 8.72604L12.3924 6.34542L11.4882 5.40896L12.7266 4.17063H10.6549L9.83533 3.35083L13.0807 0.09375L13.9122 0.925209V2.99667L14.6505 2.24667L17.9803 5.58833C18.2399 5.84792 18.4475 6.15514 18.603 6.51C18.7585 6.86472 18.8362 7.2284 18.8362 7.60104C18.8362 7.99715 18.7506 8.37889 18.5795 8.74625C18.4082 9.11375 18.181 9.4391 17.8978 9.72229L15.703 7.5275L14.6505 8.57104L13.7466 7.65521L9.05908 12.3221V14.4125L4.95575 18.525C4.86269 18.6179 4.75338 18.6911 4.62783 18.7446C4.50227 18.7981 4.36818 18.8248 4.22554 18.8248ZM4.2047 16.6354L7.17033 13.6698V12.889H6.36887L3.44491 15.8338L4.2047 16.6354ZM4.2047 16.6354L3.44491 15.8338L3.83533 16.2242L4.2047 16.6354Z" fill="#FFFBED"/>
</g>
</svg>
