<svg width="20" height="20" viewBox="0 0 20 20" fill="none" xmlns="http://www.w3.org/2000/svg">
<g clip-path="url(#clip0_3609_28991)">
<path d="M4.57031 4.57031V1.75781C4.57031 1.11059 5.09496 0.585938 5.74219 0.585938H18.2422C18.8894 0.585938 19.4141 1.11059 19.4141 1.75781V9.57031C19.4141 10.2175 18.8894 10.7422 18.2422 10.7422H9.96094M9.96094 13.4766H14.7266L13.75 10.7422H10.2344L9.96094 11.5078V13.4766Z" stroke="#FFFBED" stroke-width="1.5" stroke-miterlimit="10" stroke-linecap="round" stroke-linejoin="round"/>
<path d="M4.49219 17.0703H6.05469M12.3828 6.05469C13.6783 6.05469 14.7266 7.10297 14.7266 8.39844M12.3828 3.71094C14.9738 3.71094 17.0703 5.8075 17.0703 8.39844M8.78906 4.57031H1.75781C1.11059 4.57031 0.585938 5.09496 0.585938 5.74219V18.2422C0.585938 18.8894 1.11059 19.4141 1.75781 19.4141H8.78906C9.43629 19.4141 9.96094 18.8894 9.96094 18.2422V5.74219C9.96094 5.09496 9.43629 4.57031 8.78906 4.57031Z" stroke="#FFFBED" stroke-width="1.5" stroke-miterlimit="10" stroke-linecap="round" stroke-linejoin="round"/>
</g>
<defs>
<clipPath id="clip0_3609_28991">
<rect width="20" height="20" fill="white"/>
</clipPath>
</defs>
</svg>
