<svg width="20" height="20" viewBox="0 0 20 20" fill="none" xmlns="http://www.w3.org/2000/svg">
<g clip-path="url(#clip0_3609_27783)">
<path d="M13.9062 19.2188C16.4951 19.2188 18.5938 17.1201 18.5938 14.5312C18.5938 11.9424 16.4951 9.84375 13.9062 9.84375C11.3174 9.84375 9.21875 11.9424 9.21875 14.5312C9.21875 17.1201 11.3174 19.2188 13.9062 19.2188Z" stroke="#FFFBED" stroke-width="1.5" stroke-miterlimit="10" stroke-linecap="round" stroke-linejoin="round"/>
<path d="M4.53125 5.46875H6.09375M4.53125 8.59375H7.65625M9.21875 0.78125H2.96875C2.10578 0.78125 1.40625 1.48078 1.40625 2.34375V17.6562C1.40625 18.5191 2.10578 19.2188 2.96875 19.2188H7.65625M9.21875 0.78125V3.90625C9.21875 4.76918 9.91832 5.46875 10.7812 5.46875H13.9062M9.21875 0.78125L13.9062 5.46875M13.9062 7.03125V5.46875M13.9062 9.84375V12.9688C13.9062 13.8317 14.6058 14.5312 15.4688 14.5312H18.5938" stroke="#FFFBED" stroke-width="1.5" stroke-miterlimit="10" stroke-linecap="round" stroke-linejoin="round"/>
</g>
<defs>
<clipPath id="clip0_3609_27783">
<rect width="20" height="20" fill="white"/>
</clipPath>
</defs>
</svg>
