<svg preserveAspectRatio="none" width="100%" height="100%" overflow="visible" style="display: block;" viewBox="0 0 31 31" fill="none" xmlns="http://www.w3.org/2000/svg">
<path id="vector" d="M0 15.6421V12.55H5.45708V15.6421H0ZM5.18917 25.3304L3.11167 23.2254L6.91125 19.4021L9.04 21.5029L5.18917 25.3304ZM6.91125 8.70667L3.11167 4.88333L5.18917 2.7625L9.04 6.60583L6.91125 8.70667ZM27.5517 30.245L19.2979 22.0229L17.2242 28.3L12.2525 11.3079L28.9988 16.4742L22.6863 18.7146L30.8842 26.9125L27.5517 30.245ZM13.3558 5.45708V0H16.4475V5.45708H13.3558ZM22.8921 8.70667L20.7633 6.60583L24.6142 2.7625L26.7071 4.85583L22.8921 8.70667Z" fill="var(--fill-0, #F39E8A)"/>
</svg>
